<svg width="15" height="16" viewBox="0 0 15 16" fill="none" xmlns="http://www.w3.org/2000/svg">
<g id="eva:arrow-ios-downward-fill">
<path id="Vector" d="M5.37578 11.3758C5.22975 11.3761 5.08823 11.3252 4.97578 11.232L1.22578 8.10703C1.09815 8.00095 1.01788 7.8485 1.00264 7.68323C0.987407 7.51797 1.03845 7.35342 1.14453 7.22578C1.25062 7.09815 1.40306 7.01788 1.56833 7.00264C1.7336 6.98741 1.89815 7.03845 2.02578 7.14453L5.37578 9.94453L8.72578 7.24453C8.78971 7.19262 8.86327 7.15385 8.94224 7.13045C9.0212 7.10706 9.104 7.0995 9.1859 7.10821C9.26779 7.11692 9.34715 7.14173 9.41943 7.18122C9.4917 7.2207 9.55546 7.27408 9.60703 7.33828C9.66427 7.40255 9.70762 7.47794 9.73437 7.55973C9.76111 7.64153 9.77068 7.72797 9.76246 7.81363C9.75425 7.8993 9.72843 7.98234 9.68663 8.05756C9.64483 8.13279 9.58794 8.19857 9.51953 8.25078L5.76953 11.2695C5.65386 11.348 5.51522 11.3854 5.37578 11.3758Z" fill="#02A676"/>
</g>
</svg>
