<svg width="31" height="30" viewBox="0 0 31 30" fill="none" xmlns="http://www.w3.org/2000/svg">
<g id="simple-line-icons:basket" clip-path="url(#clip0_3380_681)">
<path id="Vector" d="M30.7417 8.08972C30.55 7.81754 30.2926 7.68145 29.9697 7.68145H9.41406L7.83984 2.32863C7.69857 1.84476 7.50684 1.43145 7.26465 1.08871C7.02246 0.745968 6.76514 0.504032 6.49268 0.362903C6.22021 0.221774 5.98307 0.126008 5.78125 0.0756048C5.57943 0.0252016 5.3776 0 5.17578 0H1.02832C0.765951 0 0.543945 0.0907258 0.362305 0.272177C0.180664 0.453629 0.0898438 0.685484 0.0898438 0.967742C0.0898438 1.12903 0.130208 1.28528 0.210938 1.43649C0.291667 1.5877 0.407715 1.70363 0.559082 1.78427C0.710449 1.86492 0.866862 1.90524 1.02832 1.90524H5.17578C5.25651 1.90524 5.33219 1.91532 5.40283 1.93548C5.47347 1.95565 5.56934 2.04133 5.69043 2.19254C5.81152 2.34375 5.91244 2.57056 5.99316 2.87298L11.3516 22.5302C11.3919 22.6512 11.4575 22.7671 11.5483 22.878C11.6392 22.9889 11.7451 23.0746 11.8662 23.1351C11.9873 23.1956 12.1185 23.2258 12.2598 23.2258H25.3379C25.5397 23.2258 25.7264 23.1653 25.8979 23.0444C26.0695 22.9234 26.1855 22.7722 26.2461 22.5907L30.8779 8.98185C30.9788 8.65927 30.9334 8.36189 30.7417 8.08972ZM24.6719 21.2903H13.0166L9.92871 9.61693H28.5771L24.6719 21.2903ZM22.7646 25.1613C22.0986 25.1613 21.5285 25.3982 21.0542 25.872C20.5799 26.3458 20.3428 26.9153 20.3428 27.5806C20.3428 28.246 20.5799 28.8155 21.0542 29.2893C21.5285 29.7631 22.0986 30 22.7646 30C23.4307 30 24.0008 29.7631 24.4751 29.2893C24.9494 28.8155 25.1865 28.246 25.1865 27.5806C25.1865 26.9153 24.9494 26.3458 24.4751 25.872C24.0008 25.3982 23.4307 25.1613 22.7646 25.1613ZM14.0459 25.1613C13.6019 25.1613 13.1932 25.2722 12.8198 25.494C12.4465 25.7157 12.1538 26.0081 11.9419 26.371C11.73 26.7339 11.624 27.1371 11.624 27.5806C11.624 28.246 11.8612 28.8155 12.3354 29.2893C12.8097 29.7631 13.3799 30 14.0459 30C14.7119 30 15.2821 29.7631 15.7563 29.2893C16.2306 28.8155 16.4678 28.246 16.4678 27.5806C16.4678 27.4194 16.4526 27.2581 16.4224 27.0968C16.3921 26.9355 16.3467 26.7843 16.2861 26.6431C16.2256 26.502 16.1499 26.3659 16.0591 26.2349C15.9683 26.1038 15.8674 25.9829 15.7563 25.872C15.6453 25.7611 15.5243 25.6603 15.3931 25.5696C15.2619 25.4788 15.1257 25.4032 14.9844 25.3427C14.8431 25.2823 14.6917 25.2369 14.5303 25.2067C14.3688 25.1764 14.2074 25.1613 14.0459 25.1613Z" fill="#404040"/>
</g>
<defs>
<clipPath id="clip0_3380_681">
<rect width="31" height="30" fill="white"/>
</clipPath>
</defs>
</svg>
