<svg version="1.2" xmlns="http://www.w3.org/2000/svg" viewBox="0 0 30 30" width="30" height="30">
	<title>bi_person-svg</title>
	<style>
		.s0 { fill: #404040 } 
	</style>
	<path id="Layer" fill-rule="evenodd" class="s0" d="m11 13.4c-1.1-1.1-1.6-2.5-1.6-4 0-1.5 0.5-2.9 1.6-4 1-1.1 2.5-1.7 4-1.7 1.5 0 2.9 0.6 3.9 1.7 1.1 1.1 1.7 2.5 1.7 4 0 1.5-0.6 2.9-1.7 4-1 1-2.4 1.6-3.9 1.6-1.5 0-3-0.6-4-1.6zm6.6-6.7c-0.7-0.7-1.6-1.1-2.6-1.1-1 0-2 0.4-2.7 1.1-0.7 0.7-1.1 1.7-1.1 2.7 0 1 0.4 1.9 1.1 2.6 0.7 0.7 1.7 1.1 2.7 1.1 1 0 1.9-0.4 2.6-1.1 0.7-0.7 1.1-1.6 1.1-2.6 0-1-0.4-2-1.1-2.7zm8.6 17.7c0 1.9-1.9 1.9-1.9 1.9h-18.7c0 0-1.9 0-1.9-1.9 0-1.9 1.9-7.5 11.3-7.5 9.3 0 11.2 5.6 11.2 7.5zm-1.9 0c0-0.5-0.3-1.9-1.5-3.2-1.3-1.2-3.6-2.4-7.8-2.4-4.3 0-6.6 1.2-7.8 2.4-1.3 1.3-1.6 2.7-1.6 3.2z"/>
</svg>