<svg width="21" height="21" viewBox="0 0 21 21" fill="none" xmlns="http://www.w3.org/2000/svg">
<g id="clarity:heart-line">
<path id="Vector" d="M10.4998 18.9175C10.3709 18.9171 10.2458 18.874 10.144 18.795C6.90063 16.275 4.66647 14.105 3.10313 11.9642C1.10813 9.22832 0.653134 6.70249 1.7498 4.45666C2.53147 2.85249 4.7773 1.53999 7.4023 2.30416C8.65387 2.66567 9.74583 3.44095 10.4998 4.50332C11.2538 3.44095 12.3457 2.66567 13.5973 2.30416C16.2165 1.55166 18.4681 2.85249 19.2498 4.45666C20.3465 6.70249 19.8915 9.22832 17.8965 11.9642C16.3331 14.105 14.099 16.275 10.8556 18.795C10.7538 18.874 10.6287 18.9171 10.4998 18.9175ZM5.90897 3.25499C5.28436 3.23068 4.66493 3.37693 4.11717 3.67805C3.5694 3.97917 3.11398 4.42378 2.7998 4.96416C1.89563 6.81916 2.30397 8.88416 4.04813 11.27C5.90172 13.6608 8.07221 15.7881 10.4998 17.5933C12.927 15.7899 15.0975 13.6646 16.9515 11.2758C18.7015 8.88416 19.104 6.81916 18.1998 4.96999C17.6165 3.80332 15.8665 2.87582 13.9181 3.42416C13.2934 3.60878 12.7143 3.92216 12.218 4.34412C11.7217 4.76608 11.3192 5.28727 11.0365 5.87416C10.9925 5.98115 10.9178 6.07265 10.8217 6.13706C10.7256 6.20146 10.6125 6.23584 10.4969 6.23584C10.3812 6.23584 10.2682 6.20146 10.1721 6.13706C10.076 6.07265 10.0012 5.98115 9.9573 5.87416C9.67671 5.2858 9.27493 4.76339 8.77832 4.34117C8.28171 3.91895 7.70147 3.60645 7.07563 3.42416C6.69645 3.31402 6.30381 3.25709 5.90897 3.25499Z" fill="#404040"/>
</g>
</svg>
