<svg width="19" height="19" viewBox="0 0 19 19" fill="none" xmlns="http://www.w3.org/2000/svg">
<g id="fluent:branch-compare-20-filled">
<g id="Group">
<path id="Vector" d="M10.5894 6.51131C10.6786 6.60051 10.7996 6.65061 10.9257 6.65061C11.0519 6.65061 11.1728 6.60051 11.262 6.51131C11.3512 6.42212 11.4013 6.30115 11.4013 6.17501C11.4013 6.04888 11.3512 5.92791 11.262 5.83871L10.1724 4.75001H11.8757C12.5056 4.75001 13.1097 5.00024 13.5551 5.44564C14.0005 5.89103 14.2507 6.49512 14.2507 7.12501V11.4C13.5367 11.4011 12.8491 11.6701 12.324 12.1539C11.7988 12.6376 11.4744 13.3009 11.4149 14.0124C11.3553 14.724 11.5651 15.4319 12.0026 15.9962C12.44 16.5605 13.0734 16.94 13.7773 17.0597C14.4812 17.1794 15.2044 17.0304 15.8038 16.6424C16.4031 16.2544 16.835 15.6555 17.014 14.9643C17.1929 14.2731 17.1059 13.5399 16.7701 12.9097C16.4343 12.2796 15.8743 11.7985 15.2007 11.5615V7.12501C15.2007 6.24317 14.8504 5.39744 14.2268 4.77388C13.6033 4.15033 12.7576 3.80001 11.8757 3.80001H10.1724L11.262 2.71131C11.3062 2.66715 11.3412 2.61472 11.3651 2.55702C11.389 2.49932 11.4013 2.43747 11.4013 2.37501C11.4013 2.31256 11.389 2.25071 11.3651 2.19301C11.3412 2.13531 11.3062 2.08288 11.262 2.03871C11.2179 1.99455 11.1654 1.95952 11.1077 1.93562C11.05 1.91172 10.9882 1.89941 10.9257 1.89941C10.8633 1.89941 10.8014 1.91172 10.7437 1.93562C10.686 1.95952 10.6336 1.99455 10.5894 2.03871L8.68942 3.93871C8.64518 3.98284 8.61009 4.03525 8.58614 4.09296C8.56219 4.15067 8.54987 4.21254 8.54987 4.27501C8.54987 4.33749 8.56219 4.39936 8.58614 4.45707C8.61009 4.51477 8.64518 4.56719 8.68942 4.61131L10.5894 6.51131ZM4.75072 7.60001C5.46473 7.59895 6.15233 7.32992 6.67748 6.84615C7.20262 6.36238 7.52705 5.69911 7.58657 4.98758C7.64609 4.27606 7.43636 3.56811 6.99888 3.00381C6.5614 2.43952 5.92805 2.05999 5.22414 1.94033C4.52022 1.82066 3.79703 1.96958 3.19766 2.35761C2.59829 2.74563 2.1664 3.34451 1.98745 4.03573C1.8085 4.72696 1.89553 5.46017 2.23131 6.0903C2.56709 6.72043 3.12717 7.20157 3.80072 7.43851V11.875C3.80072 12.7569 4.15103 13.6026 4.77459 14.2261C5.39815 14.8497 6.24387 15.2 7.12572 15.2H8.82907L7.73942 16.2887C7.65022 16.3779 7.60012 16.4989 7.60012 16.625C7.60012 16.7512 7.65022 16.8721 7.73942 16.9613C7.82861 17.0505 7.94958 17.1006 8.07572 17.1006C8.20185 17.1006 8.32282 17.0505 8.41202 16.9613L10.312 15.0613C10.4003 14.9728 10.4502 14.8529 10.4507 14.7279V14.7222C10.4499 14.5974 10.4001 14.478 10.312 14.3897L8.41202 12.4897C8.32295 12.4005 8.2021 12.3503 8.07605 12.3502C7.95001 12.3501 7.82908 12.4001 7.73989 12.4892C7.6507 12.5783 7.60054 12.6991 7.60045 12.8252C7.60036 12.9512 7.65035 13.0721 7.73942 13.1613L8.82907 14.25H7.12572C6.49583 14.25 5.89174 13.9998 5.44634 13.5544C5.00094 13.109 4.75072 12.5049 4.75072 11.875V7.60001Z" fill="#404040"/>
</g>
</g>
</svg>
