<svg width="30" height="31" viewBox="0 0 30 31" fill="none" xmlns="http://www.w3.org/2000/svg">
<g id="simple-line-icons:basket" clip-path="url(#clip0_1741_928)">
<path id="Vector" d="M29.1362 8.35938C28.9594 8.07813 28.7222 7.93751 28.4245 7.93751H9.47334L8.022 2.40625C7.89176 1.90625 7.71499 1.47917 7.49171 1.125C7.26842 0.770834 7.03119 0.520834 6.77999 0.375C6.5288 0.229167 6.31017 0.130208 6.1241 0.0781251C5.93803 0.0260417 5.75196 0 5.56589 0H1.74217C1.50028 0 1.29561 0.0937501 1.12815 0.28125C0.960684 0.46875 0.876953 0.708334 0.876953 1C0.876953 1.16667 0.914167 1.32813 0.988595 1.48438C1.06302 1.64063 1.17001 1.76042 1.30956 1.84375C1.44912 1.92709 1.59332 1.96875 1.74217 1.96875H5.56589C5.64032 1.96875 5.7101 1.97917 5.77522 2C5.84034 2.02084 5.92873 2.10938 6.04037 2.26563C6.15201 2.42188 6.24504 2.65625 6.31947 2.96875L11.2596 23.2813C11.2968 23.4063 11.3573 23.5261 11.441 23.6406C11.5248 23.7552 11.6224 23.8438 11.7341 23.9063C11.8457 23.9688 11.9667 24 12.0969 24H24.1542C24.3403 24 24.5124 23.9375 24.6705 23.8125C24.8287 23.6875 24.9357 23.5313 24.9915 23.3438L29.2618 9.28126C29.3548 8.94793 29.313 8.64063 29.1362 8.35938ZM23.5402 22H12.7947L9.94782 9.93751H27.1406L23.5402 22ZM21.7818 26C21.1678 26 20.6421 26.2448 20.2049 26.7344C19.7676 27.224 19.549 27.8125 19.549 28.5C19.549 29.1875 19.7676 29.7761 20.2049 30.2657C20.6421 30.7552 21.1678 31 21.7818 31C22.3958 31 22.9215 30.7552 23.3587 30.2657C23.796 29.7761 24.0146 29.1875 24.0146 28.5C24.0146 27.8125 23.796 27.224 23.3587 26.7344C22.9215 26.2448 22.3958 26 21.7818 26ZM13.7436 26C13.3343 26 12.9575 26.1146 12.6133 26.3438C12.269 26.5729 11.9992 26.875 11.8039 27.25C11.6085 27.625 11.5108 28.0417 11.5108 28.5C11.5108 29.1875 11.7294 29.7761 12.1667 30.2657C12.604 30.7552 13.1296 31 13.7436 31C14.3577 31 14.8833 30.7552 15.3206 30.2657C15.7578 29.7761 15.9765 29.1875 15.9765 28.5C15.9765 28.3334 15.9625 28.1667 15.9346 28C15.9067 27.8334 15.8648 27.6771 15.809 27.5313C15.7532 27.3854 15.6834 27.2448 15.5997 27.1094C15.5159 26.974 15.4229 26.849 15.3206 26.7344C15.2182 26.6198 15.1066 26.5156 14.9856 26.4219C14.8647 26.3281 14.7391 26.25 14.6088 26.1875C14.4786 26.125 14.339 26.0781 14.1902 26.0469C14.0413 26.0156 13.8925 26 13.7436 26Z" fill="white"/>
</g>
<defs>
<clipPath id="clip0_1741_928">
<rect width="28.5802" height="31" fill="white" transform="translate(0.792969)"/>
</clipPath>
</defs>
</svg>
