<svg width="24" height="24" viewBox="0 0 24 24" fill="none" xmlns="http://www.w3.org/2000/svg">
<path d="M12.0007 7.99997C12.2344 7.99951 12.4608 8.08089 12.6407 8.22997L18.6407 13.23C18.8449 13.3997 18.9733 13.6436 18.9977 13.908C19.0221 14.1725 18.9404 14.4358 18.7707 14.64C18.601 14.8442 18.3571 14.9726 18.0926 14.997C17.8282 15.0214 17.5649 14.9397 17.3607 14.77L12.0007 10.29L6.6407 14.61C6.53841 14.693 6.42072 14.7551 6.29438 14.7925C6.16804 14.8299 6.03555 14.842 5.90452 14.8281C5.77349 14.8141 5.64651 14.7744 5.53087 14.7113C5.41523 14.6481 5.31322 14.5627 5.2307 14.46C5.13912 14.3571 5.06976 14.2365 5.02697 14.1056C4.98418 13.9748 4.96887 13.8365 4.98202 13.6994C4.99516 13.5623 5.03647 13.4295 5.10335 13.3091C5.17023 13.1888 5.26125 13.0835 5.3707 13L11.3707 8.16997C11.5558 8.04445 11.7776 7.9846 12.0007 7.99997Z" fill="#02A676"/>
</svg>
