<svg width="25" height="25" viewBox="0 0 25 25" fill="none" xmlns="http://www.w3.org/2000/svg">
<path d="M16.0726 12.0961C16.0716 12.3298 15.9889 12.5557 15.8387 12.7347L10.8027 18.7045C10.6317 18.9077 10.387 19.0346 10.1225 19.0574C9.85791 19.0802 9.59513 18.9969 9.39194 18.826C9.18874 18.655 9.06179 18.4103 9.03901 18.1458C9.01622 17.8812 9.09947 17.6184 9.27043 17.4152L13.7826 12.0823L9.495 6.69638C9.41256 6.59359 9.35123 6.47553 9.31456 6.34897C9.27789 6.2224 9.2666 6.08984 9.28133 5.9589C9.29606 5.82796 9.33652 5.70122 9.40039 5.58596C9.46425 5.47071 9.55027 5.36921 9.65349 5.28731C9.75687 5.19635 9.87791 5.12772 10.009 5.08572C10.1402 5.04371 10.2786 5.02925 10.4155 5.04321C10.5525 5.05718 10.6851 5.09929 10.8051 5.16689C10.925 5.2345 11.0297 5.32615 11.1126 5.4361L15.9064 11.4651C16.0308 11.6509 16.0893 11.8731 16.0726 12.0961Z" fill="#999999"/>
</svg>
