<svg width="22" height="22" viewBox="0 0 22 22" fill="none" xmlns="http://www.w3.org/2000/svg">
<g id="ei:clock">
<path id="Vector" d="M10.9995 18.48C6.86353 18.48 3.51953 15.136 3.51953 11C3.51953 6.86402 6.86353 3.52002 10.9995 3.52002C15.1355 3.52002 18.4795 6.86402 18.4795 11C18.4795 15.136 15.1355 18.48 10.9995 18.48ZM10.9995 4.40002C7.34753 4.40002 4.39953 7.34802 4.39953 11C4.39953 14.652 7.34753 17.6 10.9995 17.6C14.6515 17.6 17.5995 14.652 17.5995 11C17.5995 7.34802 14.6515 4.40002 10.9995 4.40002Z" fill="#02A676"/>
<path id="Vector_2" d="M13.3325 14.828L10.5605 12.056V7.04004H11.4405V11.704L13.9485 14.212L13.3325 14.828Z" fill="#02A676"/>
</g>
</svg>
