<svg width="18" height="18" viewBox="0 0 18 18" fill="none" xmlns="http://www.w3.org/2000/svg">
<g id="iconfinder_38-instagram_1161953 1">
<g id="Group">
<path id="Vector" d="M8.95217 5.30157C6.72994 5.30157 4.88867 7.1111 4.88867 9.36507C4.88867 11.619 6.6982 13.4286 8.95217 13.4286C11.2061 13.4286 13.0157 11.5873 13.0157 9.36507C13.0157 7.14284 11.1744 5.30157 8.95217 5.30157ZM8.95217 11.9682C7.52359 11.9682 6.34899 10.7936 6.34899 9.36507C6.34899 7.9365 7.52359 6.76189 8.95217 6.76189C10.3807 6.76189 11.5553 7.9365 11.5553 9.36507C11.5553 10.7936 10.3807 11.9682 8.95217 11.9682Z" fill="white"/>
<path id="Vector_2" d="M13.1745 6.12698C13.683 6.12698 14.0952 5.71479 14.0952 5.20634C14.0952 4.69789 13.683 4.28571 13.1745 4.28571C12.6661 4.28571 12.2539 4.69789 12.2539 5.20634C12.2539 5.71479 12.6661 6.12698 13.1745 6.12698Z" fill="white"/>
<path id="Vector_3" d="M15.5553 2.82539C14.7299 1.96825 13.5553 1.5238 12.222 1.5238H5.68228C2.92037 1.5238 1.0791 3.36507 1.0791 6.12698V12.6349C1.0791 14 1.52355 15.1746 2.41243 16.0317C3.26958 16.8571 4.41243 17.2698 5.71402 17.2698H12.1902C13.5553 17.2698 14.6981 16.8254 15.5235 16.0317C16.3807 15.2063 16.8251 14.0317 16.8251 12.6667V6.12698C16.8251 4.79364 16.3807 3.65079 15.5553 2.82539ZM15.4283 12.6667C15.4283 13.6508 15.0791 14.4444 14.5077 14.9841C13.9362 15.5238 13.1426 15.8095 12.1902 15.8095H5.71402C4.76164 15.8095 3.96799 15.5238 3.39656 14.9841C2.82513 14.4127 2.53942 13.619 2.53942 12.6349V6.12698C2.53942 5.1746 2.82513 4.38095 3.39656 3.80952C3.93624 3.26984 4.76164 2.98412 5.71402 2.98412H12.2537C13.2061 2.98412 13.9997 3.26984 14.5712 3.84126C15.1108 4.41269 15.4283 5.20634 15.4283 6.12698V12.6667Z" fill="white"/>
</g>
</g>
</svg>
