<svg width="30" height="30" viewBox="0 0 30 30" fill="none" xmlns="http://www.w3.org/2000/svg">
<g id="clarity:heart-line">
<path id="Vector" d="M14.9992 27.0249C14.815 27.0243 14.6363 26.9628 14.4908 26.8499C9.85749 23.2499 6.66582 20.1499 4.43249 17.0916C1.58249 13.1832 0.93249 9.57492 2.49916 6.36658C3.61582 4.07492 6.82416 2.19992 10.5742 3.29158C12.3621 3.80803 13.9221 4.91557 14.9992 6.43325C16.0763 4.91557 17.6362 3.80803 19.4242 3.29158C23.1658 2.21658 26.3825 4.07492 27.4992 6.36658C29.0658 9.57492 28.4158 13.1832 25.5658 17.0916C23.3325 20.1499 20.1408 23.2499 15.5075 26.8499C15.362 26.9628 15.1833 27.0243 14.9992 27.0249ZM8.44082 4.64992C7.54853 4.61519 6.66363 4.82412 5.88111 5.25429C5.09859 5.68446 4.44799 6.31962 3.99916 7.09158C2.70749 9.74158 3.29082 12.6916 5.78249 16.0999C8.43046 19.5154 11.5312 22.5544 14.9992 25.1332C18.4666 22.557 21.5673 19.5208 24.2158 16.1082C26.7158 12.6916 27.2908 9.74158 25.9992 7.09992C25.1658 5.43325 22.6658 4.10825 19.8825 4.89158C18.99 5.15533 18.1627 5.60301 17.4537 6.20581C16.7447 6.80861 16.1697 7.55317 15.7658 8.39158C15.703 8.54443 15.5962 8.67515 15.459 8.76715C15.3217 8.85916 15.1602 8.90828 14.995 8.90828C14.8298 8.90828 14.6683 8.85916 14.531 8.76715C14.3937 8.67515 14.2869 8.54443 14.2242 8.39158C13.8233 7.55107 13.2493 6.80477 12.5399 6.2016C11.8305 5.59843 11.0015 5.152 10.1075 4.89158C9.5658 4.73425 9.00489 4.65292 8.44082 4.64992Z" fill="#404040"/>
</g>
</svg>
