<svg width="40" height="40" viewBox="0 0 40 40" fill="none" xmlns="http://www.w3.org/2000/svg">
<circle cx="20" cy="20" r="20" fill="#F6F6F6"/>
<path d="M20.001 31.2234C19.8292 31.2229 19.6624 31.1654 19.5266 31.0601C15.2021 27.7001 12.2233 24.8067 10.1388 21.9523C7.47881 18.3045 6.87215 14.9367 8.33437 11.9423C9.37659 9.8034 12.371 8.0534 15.871 9.07229C17.5398 9.55431 18.9957 10.588 20.001 12.0045C21.0063 10.588 22.4623 9.55431 24.131 9.07229C27.6233 8.06896 30.6255 9.8034 31.6677 11.9423C33.1299 14.9367 32.5233 18.3045 29.8633 21.9523C27.7788 24.8067 24.7999 27.7001 20.4755 31.0601C20.3397 31.1654 20.1729 31.2229 20.001 31.2234ZM13.8799 10.3401C13.0471 10.3077 12.2212 10.5027 11.4909 10.9042C10.7605 11.3056 10.1533 11.8985 9.73437 12.619C8.52881 15.0923 9.07326 17.8456 11.3988 21.0267C13.8703 24.2145 16.7642 27.0509 20.001 29.4578C23.2373 27.0533 26.1313 24.2195 28.6033 21.0345C30.9366 17.8456 31.4733 15.0923 30.2677 12.6267C29.4899 11.0712 27.1566 9.83451 24.5588 10.5656C23.7258 10.8118 22.9536 11.2296 22.2919 11.7922C21.6302 12.3548 21.0936 13.0498 20.7166 13.8323C20.658 13.9749 20.5583 14.097 20.4302 14.1828C20.3021 14.2687 20.1514 14.3145 19.9971 14.3145C19.8429 14.3145 19.6922 14.2687 19.5641 14.1828C19.436 14.097 19.3363 13.9749 19.2777 13.8323C18.9036 13.0478 18.3679 12.3513 17.7057 11.7883C17.0436 11.2253 16.2699 10.8087 15.4355 10.5656C14.9299 10.4188 14.4064 10.3429 13.8799 10.3401Z" fill="#404040"/>
</svg>
