<svg width="62" height="16" viewBox="0 0 62 16" fill="none" xmlns="http://www.w3.org/2000/svg">
<path d="M0.328 0.799999H2.92V9.888H8.536V12H0.328V0.799999ZM18.6562 9.92V12H9.98425V0.799999H18.4483V2.88H12.5603V5.312H17.7603V7.328H12.5603V9.92H18.6562ZM24.7986 7.6L23.2946 9.168V12H20.7186V0.799999H23.2946V6.032L28.2546 0.799999H31.1346L26.4946 5.792L31.4066 12H28.3826L24.7986 7.6ZM32.5624 0.799999H35.1544V12H32.5624V0.799999ZM38.5804 12.128C38.143 12.128 37.775 11.9787 37.4764 11.68C37.1777 11.3813 37.0284 11.008 37.0284 10.56C37.0284 10.1013 37.1777 9.73333 37.4764 9.456C37.775 9.168 38.143 9.024 38.5804 9.024C39.0177 9.024 39.3857 9.168 39.6844 9.456C39.983 9.73333 40.1324 10.1013 40.1324 10.56C40.1324 11.008 39.983 11.3813 39.6844 11.68C39.3857 11.9787 39.0177 12.128 38.5804 12.128ZM46.9119 3.264C47.7119 3.264 48.4372 3.45067 49.0879 3.824C49.7492 4.18667 50.2665 4.704 50.6399 5.376C51.0132 6.03733 51.1999 6.81067 51.1999 7.696C51.1999 8.58133 51.0132 9.36 50.6399 10.032C50.2665 10.6933 49.7492 11.2107 49.0879 11.584C48.4372 11.9467 47.7119 12.128 46.9119 12.128C45.7279 12.128 44.8265 11.7547 44.2079 11.008V12H41.8239V0.127999H44.3199V4.304C44.9492 3.61067 45.8132 3.264 46.9119 3.264ZM46.4799 10.08C47.1199 10.08 47.6425 9.86667 48.0479 9.44C48.4639 9.00267 48.6719 8.42133 48.6719 7.696C48.6719 6.97067 48.4639 6.39467 48.0479 5.968C47.6425 5.53067 47.1199 5.312 46.4799 5.312C45.8399 5.312 45.3119 5.53067 44.8959 5.968C44.4905 6.39467 44.2879 6.97067 44.2879 7.696C44.2879 8.42133 44.4905 9.00267 44.8959 9.44C45.3119 9.86667 45.8399 10.08 46.4799 10.08ZM61.1804 3.392L57.2924 12.528C56.8977 13.52 56.407 14.2187 55.8204 14.624C55.2444 15.0293 54.5457 15.232 53.7244 15.232C53.2764 15.232 52.8337 15.1627 52.3964 15.024C51.959 14.8853 51.6017 14.6933 51.3244 14.448L52.2364 12.672C52.4284 12.8427 52.647 12.976 52.8924 13.072C53.1484 13.168 53.399 13.216 53.6444 13.216C53.9857 13.216 54.263 13.1307 54.4764 12.96C54.6897 12.8 54.8817 12.528 55.0524 12.144L55.0844 12.064L51.3564 3.392H53.9324L56.3484 9.232L58.7804 3.392H61.1804Z" fill="white"/>
</svg>
