<svg width="203" height="63" viewBox="0 0 203 63" fill="none" xmlns="http://www.w3.org/2000/svg">
<line x1="4" y1="57.5" x2="202" y2="57.5" stroke="#02A676" stroke-width="3"/>
<path d="M4.15 15H12.25V43.4H29.8V50H4.15V15ZM61.4258 43.5V50H34.3258V15H60.7758V21.5H42.3758V29.1H58.6258V35.4H42.3758V43.5H61.4258ZM80.6207 36.25L75.9207 41.15V50H67.8707V15H75.9207V31.35L91.4207 15H100.421L85.9207 30.6L101.271 50H91.8207L80.6207 36.25ZM123.689 50.4C122.322 50.4 121.172 49.9333 120.239 49C119.305 48.0667 118.839 46.9 118.839 45.5C118.839 44.0667 119.305 42.9167 120.239 42.05C121.172 41.15 122.322 40.7 123.689 40.7C125.055 40.7 126.205 41.15 127.139 42.05C128.072 42.9167 128.539 44.0667 128.539 45.5C128.539 46.9 128.072 48.0667 127.139 49C126.205 49.9333 125.055 50.4 123.689 50.4ZM160.075 31.8C162.075 32.4333 163.641 33.5 164.775 35C165.908 36.4667 166.475 38.2833 166.475 40.45C166.475 43.5167 165.275 45.8833 162.875 47.55C160.508 49.1833 157.041 50 152.475 50H134.375V15H151.475C155.741 15 159.008 15.8167 161.275 17.45C163.575 19.0833 164.725 21.3 164.725 24.1C164.725 25.8 164.308 27.3167 163.475 28.65C162.675 29.9833 161.541 31.0333 160.075 31.8ZM142.425 21.1V29.35H150.475C152.475 29.35 153.991 29 155.025 28.3C156.058 27.6 156.575 26.5667 156.575 25.2C156.575 23.8333 156.058 22.8167 155.025 22.15C153.991 21.45 152.475 21.1 150.475 21.1H142.425ZM151.875 43.9C154.008 43.9 155.608 43.55 156.675 42.85C157.775 42.15 158.325 41.0667 158.325 39.6C158.325 36.7 156.175 35.25 151.875 35.25H142.425V43.9H151.875ZM188.675 37.6V50H180.575V37.5L167.025 15H175.625L184.975 30.55L194.325 15H202.275L188.675 37.6Z" fill="#404040"/>
<path d="M104.882 15H112.982V50H104.882V15Z" fill="#02A676"/>
<g clip-path="url(#clip0_1723_97)">
<path d="M109 0.1875C105.789 0.1875 103.188 2.78906 103.188 6C103.188 9.21094 105.789 11.8125 109 11.8125C112.211 11.8125 114.812 9.21094 114.812 6C114.812 2.78906 112.211 0.1875 109 0.1875ZM112.375 6.65625C112.375 6.81094 112.248 6.9375 112.094 6.9375H109.938V9.09375C109.938 9.24844 109.811 9.375 109.656 9.375H108.344C108.189 9.375 108.062 9.24844 108.062 9.09375V6.9375H105.906C105.752 6.9375 105.625 6.81094 105.625 6.65625V5.34375C105.625 5.18906 105.752 5.0625 105.906 5.0625H108.062V2.90625C108.062 2.75156 108.189 2.625 108.344 2.625H109.656C109.811 2.625 109.938 2.75156 109.938 2.90625V5.0625H112.094C112.248 5.0625 112.375 5.18906 112.375 5.34375V6.65625Z" fill="#02A676"/>
</g>
<defs>
<clipPath id="clip0_1723_97">
<rect width="12" height="12" fill="white" transform="translate(103)"/>
</clipPath>
</defs>
</svg>
