<svg width="17" height="15" viewBox="0 0 17 15" fill="none" xmlns="http://www.w3.org/2000/svg">
<g id="typcn:th-menu">
<path id="Vector" d="M13.0218 10.625H3.43583C2.68059 10.625 2.06641 11.1856 2.06641 11.875C2.06641 12.5644 2.68059 13.125 3.43583 13.125H13.0218C13.7771 13.125 14.3912 12.5644 14.3912 11.875C14.3912 11.1856 13.7771 10.625 13.0218 10.625ZM13.0218 6.25H3.43583C2.68059 6.25 2.06641 6.81063 2.06641 7.5C2.06641 8.18937 2.68059 8.75 3.43583 8.75H13.0218C13.7771 8.75 14.3912 8.18937 14.3912 7.5C14.3912 6.81063 13.7771 6.25 13.0218 6.25ZM13.0218 1.875H3.43583C2.68059 1.875 2.06641 2.43562 2.06641 3.125C2.06641 3.81438 2.68059 4.375 3.43583 4.375H13.0218C13.7771 4.375 14.3912 3.81438 14.3912 3.125C14.3912 2.43562 13.7771 1.875 13.0218 1.875Z" fill="#02A676"/>
</g>
</svg>
