<svg width="15" height="16" viewBox="0 0 15 16" fill="none" xmlns="http://www.w3.org/2000/svg">
<g id="carbon:phone">
<path id="Vector" d="M12.1881 14.0938H12.1084C2.89743 13.5641 1.58962 5.79219 1.40681 3.42031C1.39208 3.2359 1.41388 3.05039 1.47097 2.87441C1.52806 2.69844 1.61931 2.53545 1.73949 2.39481C1.85967 2.25416 2.00643 2.1386 2.17134 2.05477C2.33626 1.97093 2.5161 1.92046 2.70056 1.90625H5.28337C5.47113 1.90607 5.65462 1.96227 5.81007 2.06758C5.96552 2.17288 6.08577 2.32244 6.15525 2.49688L6.86775 4.25C6.93635 4.42041 6.95337 4.60722 6.9167 4.78723C6.88004 4.96724 6.79129 5.1325 6.6615 5.2625L5.66306 6.27031C5.81902 7.1566 6.24346 7.97359 6.87895 8.61076C7.51444 9.24793 8.33031 9.67452 9.21618 9.83281L10.2334 8.825C10.3653 8.69664 10.5321 8.60996 10.713 8.57578C10.8939 8.54161 11.0809 8.56144 11.2506 8.63281L13.0177 9.34063C13.1896 9.41229 13.3361 9.53348 13.4388 9.68875C13.5415 9.84403 13.5956 10.0264 13.5943 10.2125V12.6875C13.5943 13.0605 13.4462 13.4181 13.1824 13.6819C12.9187 13.9456 12.561 14.0938 12.1881 14.0938ZM2.81306 2.84375C2.68874 2.84375 2.56951 2.89314 2.4816 2.98104C2.39369 3.06895 2.34431 3.18818 2.34431 3.3125V3.35C2.55993 6.125 3.94275 12.6875 12.1599 13.1562C12.2215 13.1601 12.2832 13.1517 12.3416 13.1316C12.3999 13.1115 12.4537 13.08 12.4999 13.0391C12.546 12.9982 12.5836 12.9485 12.6106 12.893C12.6375 12.8375 12.6532 12.7772 12.6568 12.7156V10.2125L10.8896 9.50469L9.54431 10.8406L9.31931 10.8125C5.24118 10.3016 4.68806 6.22344 4.68806 6.18125L4.65993 5.95625L5.99118 4.61094L5.28806 2.84375H2.81306Z" fill="#02A676"/>
</g>
</svg>
