<svg width="30" height="30" viewBox="0 0 30 30" fill="none" xmlns="http://www.w3.org/2000/svg">
<g id="carbon:search">
<path id="Vector" d="M27.1878 25.862L20.1078 18.782C21.8092 16.7394 22.6576 14.1196 22.4766 11.4675C22.2955 8.81536 21.099 6.33513 19.1359 4.54275C17.1727 2.75037 14.5941 1.78384 11.9365 1.84422C9.27892 1.90461 6.7469 2.98726 4.8672 4.86696C2.9875 6.74666 1.90485 9.27868 1.84447 11.9363C1.78408 14.5939 2.75061 17.1725 4.54299 19.1356C6.33538 21.0988 8.81561 22.2953 11.4677 22.4763C14.1199 22.6574 16.7397 21.8089 18.7822 20.1076L25.8622 27.1876L27.1878 25.862ZM3.75032 12.1876C3.75032 10.5188 4.24517 8.88749 5.1723 7.49995C6.09942 6.11241 7.41718 5.03096 8.95893 4.39234C10.5007 3.75373 12.1972 3.58664 13.8339 3.9122C15.4706 4.23777 16.974 5.04136 18.154 6.22136C19.334 7.40137 20.1376 8.90479 20.4632 10.5415C20.7888 12.1782 20.6217 13.8747 19.9831 15.4165C19.3444 16.9582 18.263 18.276 16.8754 19.2031C15.4879 20.1302 13.8566 20.6251 12.1878 20.6251C9.95082 20.6226 7.80615 19.7329 6.22435 18.1511C4.64255 16.5693 3.7528 14.4246 3.75032 12.1876Z" fill="white"/>
</g>
</svg>
