<svg display="none" xmlns="http://www.w3.org/2000/svg">

  <symbol id="clock-icon" width="22" height="22" viewBox="0 0 22 22">
    <g>
      <path d="M10.9995 18.48C6.86353 18.48 3.51953 15.136 3.51953 11C3.51953 6.86402 6.86353 3.52002 10.9995 3.52002C15.1355 3.52002 18.4795 6.86402 18.4795 11C18.4795 15.136 15.1355 18.48 10.9995 18.48ZM10.9995 4.40002C7.34753 4.40002 4.39953 7.34802 4.39953 11C4.39953 14.652 7.34753 17.6 10.9995 17.6C14.6515 17.6 17.5995 14.652 17.5995 11C17.5995 7.34802 14.6515 4.40002 10.9995 4.40002Z"/>
      <path d="M13.3325 14.828L10.5605 12.056V7.04004H11.4405V11.704L13.9485 14.212L13.3325 14.828Z"/>
    </g>
  </symbol>

  <symbol id="arrow-down" width="15" height="16" viewBox="0 0 15 16">
    <g>
      <path d="M5.37578 11.3758C5.22975 11.3761 5.08823 11.3252 4.97578 11.232L1.22578 8.10703C1.09815 8.00095 1.01788 7.8485 1.00264 7.68323C0.987407 7.51797 1.03845 7.35342 1.14453 7.22578C1.25062 7.09815 1.40306 7.01788 1.56833 7.00264C1.7336 6.98741 1.89815 7.03845 2.02578 7.14453L5.37578 9.94453L8.72578 7.24453C8.78971 7.19262 8.86327 7.15385 8.94224 7.13045C9.0212 7.10706 9.104 7.0995 9.1859 7.10821C9.26779 7.11692 9.34715 7.14173 9.41943 7.18122C9.4917 7.2207 9.55546 7.27408 9.60703 7.33828C9.66427 7.40255 9.70762 7.47794 9.73437 7.55973C9.76111 7.64153 9.77068 7.72797 9.76246 7.81363C9.75425 7.8993 9.72843 7.98234 9.68663 8.05756C9.64483 8.13279 9.58794 8.19857 9.51953 8.25078L5.76953 11.2695C5.65386 11.348 5.51522 11.3854 5.37578 11.3758Z"/>
    </g>
  </symbol>

  <symbol id="phone-icon" width="15" height="16" viewBox="0 0 15 16">
    <g>
      <path d="M12.1881 14.0938H12.1084C2.89743 13.5641 1.58962 5.79219 1.40681 3.42031C1.39208 3.2359 1.41388 3.05039 1.47097 2.87441C1.52806 2.69844 1.61931 2.53545 1.73949 2.39481C1.85967 2.25416 2.00643 2.1386 2.17134 2.05477C2.33626 1.97093 2.5161 1.92046 2.70056 1.90625H5.28337C5.47113 1.90607 5.65462 1.96227 5.81007 2.06758C5.96552 2.17288 6.08577 2.32244 6.15525 2.49688L6.86775 4.25C6.93635 4.42041 6.95337 4.60722 6.9167 4.78723C6.88004 4.96724 6.79129 5.1325 6.6615 5.2625L5.66306 6.27031C5.81902 7.1566 6.24346 7.97359 6.87895 8.61076C7.51444 9.24793 8.33031 9.67452 9.21618 9.83281L10.2334 8.825C10.3653 8.69664 10.5321 8.60996 10.713 8.57578C10.8939 8.54161 11.0809 8.56144 11.2506 8.63281L13.0177 9.34063C13.1896 9.41229 13.3361 9.53348 13.4388 9.68875C13.5415 9.84403 13.5956 10.0264 13.5943 10.2125V12.6875C13.5943 13.0605 13.4462 13.4181 13.1824 13.6819C12.9187 13.9456 12.561 14.0938 12.1881 14.0938ZM2.81306 2.84375C2.68874 2.84375 2.56951 2.89314 2.4816 2.98104C2.39369 3.06895 2.34431 3.18818 2.34431 3.3125V3.35C2.55993 6.125 3.94275 12.6875 12.1599 13.1562C12.2215 13.1601 12.2832 13.1517 12.3416 13.1316C12.3999 13.1115 12.4537 13.08 12.4999 13.0391C12.546 12.9982 12.5836 12.9485 12.6106 12.893C12.6375 12.8375 12.6532 12.7772 12.6568 12.7156V10.2125L10.8896 9.50469L9.54431 10.8406L9.31931 10.8125C5.24118 10.3016 4.68806 6.22344 4.68806 6.18125L4.65993 5.95625L5.99118 4.61094L5.28806 2.84375H2.81306Z"/>
    </g>
  </symbol>

  <symbol id="person-icon" width="16" height="16" viewBox="0 0 16 16">
    <g>
      <path d="M8 8C8.79565 8 9.55871 7.68393 10.1213 7.12132C10.6839 6.55871 11 5.79565 11 5C11 4.20435 10.6839 3.44129 10.1213 2.87868C9.55871 2.31607 8.79565 2 8 2C7.20435 2 6.44129 2.31607 5.87868 2.87868C5.31607 3.44129 5 4.20435 5 5C5 5.79565 5.31607 6.55871 5.87868 7.12132C6.44129 7.68393 7.20435 8 8 8ZM10 5C10 5.53043 9.78929 6.03914 9.41421 6.41421C9.03914 6.78929 8.53043 7 8 7C7.46957 7 6.96086 6.78929 6.58579 6.41421C6.21071 6.03914 6 5.53043 6 5C6 4.46957 6.21071 3.96086 6.58579 3.58579C6.96086 3.21071 7.46957 3 8 3C8.53043 3 9.03914 3.21071 9.41421 3.58579C9.78929 3.96086 10 4.46957 10 5ZM14 13C14 14 13 14 13 14H3C3 14 2 14 2 13C2 12 3 9 8 9C13 9 14 12 14 13ZM13 12.996C12.999 12.75 12.846 12.01 12.168 11.332C11.516 10.68 10.289 10 8 10C5.71 10 4.484 10.68 3.832 11.332C3.154 12.01 3.002 12.75 3 12.996H13Z"/>
    </g>
  </symbol>

  <symbol id="search-icon" width="30" height="30" viewBox="0 0 30 30">
    <g>
      <path d="M27.1878 25.862L20.1078 18.782C21.8092 16.7394 22.6576 14.1196 22.4766 11.4675C22.2955 8.81536 21.099 6.33513 19.1359 4.54275C17.1727 2.75037 14.5941 1.78384 11.9365 1.84422C9.27892 1.90461 6.7469 2.98726 4.8672 4.86696C2.9875 6.74666 1.90485 9.27868 1.84447 11.9363C1.78408 14.5939 2.75061 17.1725 4.54299 19.1356C6.33538 21.0988 8.81561 22.2953 11.4677 22.4763C14.1199 22.6574 16.7397 21.8089 18.7822 20.1076L25.8622 27.1876L27.1878 25.862ZM3.75032 12.1876C3.75032 10.5188 4.24517 8.88749 5.1723 7.49995C6.09942 6.11241 7.41718 5.03096 8.95893 4.39234C10.5007 3.75373 12.1972 3.58664 13.8339 3.9122C15.4706 4.23777 16.974 5.04136 18.154 6.22136C19.334 7.40137 20.1376 8.90479 20.4632 10.5415C20.7888 12.1782 20.6217 13.8747 19.9831 15.4165C19.3444 16.9582 18.263 18.276 16.8754 19.2031C15.4879 20.1302 13.8566 20.6251 12.1878 20.6251C9.95082 20.6226 7.80615 19.7329 6.22435 18.1511C4.64255 16.5693 3.7528 14.4246 3.75032 12.1876Z"/>
    </g>
  </symbol>

  <symbol id="like-icon" width="30" height="30" viewBox="0 0 30 30">
    <g>
      <path d="M14.9992 27.0249C14.815 27.0243 14.6363 26.9628 14.4908 26.8499C9.85749 23.2499 6.66582 20.1499 4.43249 17.0916C1.58249 13.1832 0.93249 9.57492 2.49916 6.36658C3.61582 4.07492 6.82416 2.19992 10.5742 3.29158C12.3621 3.80803 13.9221 4.91557 14.9992 6.43325C16.0763 4.91557 17.6362 3.80803 19.4242 3.29158C23.1658 2.21658 26.3825 4.07492 27.4992 6.36658C29.0658 9.57492 28.4158 13.1832 25.5658 17.0916C23.3325 20.1499 20.1408 23.2499 15.5075 26.8499C15.362 26.9628 15.1833 27.0243 14.9992 27.0249ZM8.44082 4.64992C7.54853 4.61519 6.66363 4.82412 5.88111 5.25429C5.09859 5.68446 4.44799 6.31962 3.99916 7.09158C2.70749 9.74158 3.29082 12.6916 5.78249 16.0999C8.43046 19.5154 11.5312 22.5544 14.9992 25.1332C18.4666 22.557 21.5673 19.5208 24.2158 16.1082C26.7158 12.6916 27.2908 9.74158 25.9992 7.09992C25.1658 5.43325 22.6658 4.10825 19.8825 4.89158C18.99 5.15533 18.1627 5.60301 17.4537 6.20581C16.7447 6.80861 16.1697 7.55317 15.7658 8.39158C15.703 8.54443 15.5962 8.67515 15.459 8.76715C15.3217 8.85916 15.1602 8.90828 14.995 8.90828C14.8298 8.90828 14.6683 8.85916 14.531 8.76715C14.3937 8.67515 14.2869 8.54443 14.2242 8.39158C13.8233 7.55107 13.2493 6.80477 12.5399 6.2016C11.8305 5.59843 11.0015 5.152 10.1075 4.89158C9.5658 4.73425 9.00489 4.65292 8.44082 4.64992Z"/>
    </g>
  </symbol>

  <symbol id="like-prof-icon" width="40" height="40" viewBox="0 0 40 40" fill="none">
    <g>
      <circle cx="20" cy="20" r="20" fill="#F6F6F6"/>
      <path d="M20.001 31.2234C19.8292 31.2229 19.6624 31.1654 19.5266 31.0601C15.2021 27.7001 12.2233 24.8067 10.1388 21.9523C7.47881 18.3045 6.87215 14.9367 8.33437 11.9423C9.37659 9.8034 12.371 8.0534 15.871 9.07229C17.5398 9.55431 18.9957 10.588 20.001 12.0045C21.0063 10.588 22.4623 9.55431 24.131 9.07229C27.6233 8.06896 30.6255 9.8034 31.6677 11.9423C33.1299 14.9367 32.5233 18.3045 29.8633 21.9523C27.7788 24.8067 24.7999 27.7001 20.4755 31.0601C20.3397 31.1654 20.1729 31.2229 20.001 31.2234ZM13.8799 10.3401C13.0471 10.3077 12.2212 10.5027 11.4909 10.9042C10.7605 11.3056 10.1533 11.8985 9.73437 12.619C8.52881 15.0923 9.07326 17.8456 11.3988 21.0267C13.8703 24.2145 16.7642 27.0509 20.001 29.4578C23.2373 27.0533 26.1313 24.2195 28.6033 21.0345C30.9366 17.8456 31.4733 15.0923 30.2677 12.6267C29.4899 11.0712 27.1566 9.83451 24.5588 10.5656C23.7258 10.8118 22.9536 11.2296 22.2919 11.7922C21.6302 12.3548 21.0936 13.0498 20.7166 13.8323C20.658 13.9749 20.5583 14.097 20.4302 14.1828C20.3021 14.2687 20.1514 14.3145 19.9971 14.3145C19.8429 14.3145 19.6922 14.2687 19.5641 14.1828C19.436 14.097 19.3363 13.9749 19.2777 13.8323C18.9036 13.0478 18.3679 12.3513 17.7057 11.7883C17.0436 11.2253 16.2699 10.8087 15.4355 10.5656C14.9299 10.4188 14.4064 10.3429 13.8799 10.3401Z" fill="#404040"/>
    </g>
  </symbol>

  <symbol id="basket-icon" width="31" height="30" viewBox="0 0 31 30">
    <g>
      <path d="M30.7417 8.08972C30.55 7.81754 30.2926 7.68145 29.9697 7.68145H9.41406L7.83984 2.32863C7.69857 1.84476 7.50684 1.43145 7.26465 1.08871C7.02246 0.745968 6.76514 0.504032 6.49268 0.362903C6.22021 0.221774 5.98307 0.126008 5.78125 0.0756048C5.57943 0.0252016 5.3776 0 5.17578 0H1.02832C0.765951 0 0.543945 0.0907258 0.362305 0.272177C0.180664 0.453629 0.0898438 0.685484 0.0898438 0.967742C0.0898438 1.12903 0.130208 1.28528 0.210938 1.43649C0.291667 1.5877 0.407715 1.70363 0.559082 1.78427C0.710449 1.86492 0.866862 1.90524 1.02832 1.90524H5.17578C5.25651 1.90524 5.33219 1.91532 5.40283 1.93548C5.47347 1.95565 5.56934 2.04133 5.69043 2.19254C5.81152 2.34375 5.91244 2.57056 5.99316 2.87298L11.3516 22.5302C11.3919 22.6512 11.4575 22.7671 11.5483 22.878C11.6392 22.9889 11.7451 23.0746 11.8662 23.1351C11.9873 23.1956 12.1185 23.2258 12.2598 23.2258H25.3379C25.5397 23.2258 25.7264 23.1653 25.8979 23.0444C26.0695 22.9234 26.1855 22.7722 26.2461 22.5907L30.8779 8.98185C30.9788 8.65927 30.9334 8.36189 30.7417 8.08972ZM24.6719 21.2903H13.0166L9.92871 9.61693H28.5771L24.6719 21.2903ZM22.7646 25.1613C22.0986 25.1613 21.5285 25.3982 21.0542 25.872C20.5799 26.3458 20.3428 26.9153 20.3428 27.5806C20.3428 28.246 20.5799 28.8155 21.0542 29.2893C21.5285 29.7631 22.0986 30 22.7646 30C23.4307 30 24.0008 29.7631 24.4751 29.2893C24.9494 28.8155 25.1865 28.246 25.1865 27.5806C25.1865 26.9153 24.9494 26.3458 24.4751 25.872C24.0008 25.3982 23.4307 25.1613 22.7646 25.1613ZM14.0459 25.1613C13.6019 25.1613 13.1932 25.2722 12.8198 25.494C12.4465 25.7157 12.1538 26.0081 11.9419 26.371C11.73 26.7339 11.624 27.1371 11.624 27.5806C11.624 28.246 11.8612 28.8155 12.3354 29.2893C12.8097 29.7631 13.3799 30 14.0459 30C14.7119 30 15.2821 29.7631 15.7563 29.2893C16.2306 28.8155 16.4678 28.246 16.4678 27.5806C16.4678 27.4194 16.4526 27.2581 16.4224 27.0968C16.3921 26.9355 16.3467 26.7843 16.2861 26.6431C16.2256 26.502 16.1499 26.3659 16.0591 26.2349C15.9683 26.1038 15.8674 25.9829 15.7563 25.872C15.6453 25.7611 15.5243 25.6603 15.3931 25.5696C15.2619 25.4788 15.1257 25.4032 14.9844 25.3427C14.8431 25.2823 14.6917 25.2369 14.5303 25.2067C14.3688 25.1764 14.2074 25.1613 14.0459 25.1613Z"/>
    </g>
  </symbol>

  <symbol id="menu-icon" width="17" height="15" viewBox="0 0 17 15">
    <g>
      <path d="M13.0218 10.625H3.43583C2.68059 10.625 2.06641 11.1856 2.06641 11.875C2.06641 12.5644 2.68059 13.125 3.43583 13.125H13.0218C13.7771 13.125 14.3912 12.5644 14.3912 11.875C14.3912 11.1856 13.7771 10.625 13.0218 10.625ZM13.0218 6.25H3.43583C2.68059 6.25 2.06641 6.81063 2.06641 7.5C2.06641 8.18937 2.68059 8.75 3.43583 8.75H13.0218C13.7771 8.75 14.3912 8.18937 14.3912 7.5C14.3912 6.81063 13.7771 6.25 13.0218 6.25ZM13.0218 1.875H3.43583C2.68059 1.875 2.06641 2.43562 2.06641 3.125C2.06641 3.81438 2.68059 4.375 3.43583 4.375H13.0218C13.7771 4.375 14.3912 3.81438 14.3912 3.125C14.3912 2.43562 13.7771 1.875 13.0218 1.875Z"/>
    </g>
  </symbol>

  <symbol id="arrow-left" width="31" height="31" viewBox="0 0 31 31" fill="none">
    <g>
      <path d="M5.06444 15.1015L25.0459 15.0093" stroke="#999999" stroke-width="2" stroke-linecap="round" stroke-linejoin="round"/>
      <path d="M13.7666 6.31909L5.06504 15.1013L13.8473 23.8029" stroke="#999999" stroke-width="2" stroke-linecap="round" stroke-linejoin="round"/>
    </g>
  </symbol>

  <symbol id="arrow-right" width="31" height="31" viewBox="0 0 31 31" fill="none">
    <g>
      <path d="M25.7559 15.0091L5.77441 15.1013" stroke="#999999" stroke-width="2" stroke-linecap="round" stroke-linejoin="round"/>
      <path d="M16.9736 6.30762L25.7559 15.0092L17.0543 23.7914" stroke="#999999" stroke-width="2" stroke-linecap="round" stroke-linejoin="round"/>
    </g>
  </symbol>

  <symbol id="logo-footer" width="62" height="16" viewBox="0 0 62 16">
    <g>
      <path d="M0.328 0.799999H2.92V9.888H8.536V12H0.328V0.799999ZM18.6562 9.92V12H9.98425V0.799999H18.4483V2.88H12.5603V5.312H17.7603V7.328H12.5603V9.92H18.6562ZM24.7986 7.6L23.2946 9.168V12H20.7186V0.799999H23.2946V6.032L28.2546 0.799999H31.1346L26.4946 5.792L31.4066 12H28.3826L24.7986 7.6ZM32.5624 0.799999H35.1544V12H32.5624V0.799999ZM38.5804 12.128C38.143 12.128 37.775 11.9787 37.4764 11.68C37.1777 11.3813 37.0284 11.008 37.0284 10.56C37.0284 10.1013 37.1777 9.73333 37.4764 9.456C37.775 9.168 38.143 9.024 38.5804 9.024C39.0177 9.024 39.3857 9.168 39.6844 9.456C39.983 9.73333 40.1324 10.1013 40.1324 10.56C40.1324 11.008 39.983 11.3813 39.6844 11.68C39.3857 11.9787 39.0177 12.128 38.5804 12.128ZM46.9119 3.264C47.7119 3.264 48.4372 3.45067 49.0879 3.824C49.7492 4.18667 50.2665 4.704 50.6399 5.376C51.0132 6.03733 51.1999 6.81067 51.1999 7.696C51.1999 8.58133 51.0132 9.36 50.6399 10.032C50.2665 10.6933 49.7492 11.2107 49.0879 11.584C48.4372 11.9467 47.7119 12.128 46.9119 12.128C45.7279 12.128 44.8265 11.7547 44.2079 11.008V12H41.8239V0.127999H44.3199V4.304C44.9492 3.61067 45.8132 3.264 46.9119 3.264ZM46.4799 10.08C47.1199 10.08 47.6425 9.86667 48.0479 9.44C48.4639 9.00267 48.6719 8.42133 48.6719 7.696C48.6719 6.97067 48.4639 6.39467 48.0479 5.968C47.6425 5.53067 47.1199 5.312 46.4799 5.312C45.8399 5.312 45.3119 5.53067 44.8959 5.968C44.4905 6.39467 44.2879 6.97067 44.2879 7.696C44.2879 8.42133 44.4905 9.00267 44.8959 9.44C45.3119 9.86667 45.8399 10.08 46.4799 10.08ZM61.1804 3.392L57.2924 12.528C56.8977 13.52 56.407 14.2187 55.8204 14.624C55.2444 15.0293 54.5457 15.232 53.7244 15.232C53.2764 15.232 52.8337 15.1627 52.3964 15.024C51.959 14.8853 51.6017 14.6933 51.3244 14.448L52.2364 12.672C52.4284 12.8427 52.647 12.976 52.8924 13.072C53.1484 13.168 53.399 13.216 53.6444 13.216C53.9857 13.216 54.263 13.1307 54.4764 12.96C54.6897 12.8 54.8817 12.528 55.0524 12.144L55.0844 12.064L51.3564 3.392H53.9324L56.3484 9.232L58.7804 3.392H61.1804Z"/>
    </g>
  </symbol>

  <symbol id="instagram-icon" width="18" height="18" viewBox="0 0 18 18">
    <g>
      <path d="M8.95217 5.30157C6.72994 5.30157 4.88867 7.1111 4.88867 9.36507C4.88867 11.619 6.6982 13.4286 8.95217 13.4286C11.2061 13.4286 13.0157 11.5873 13.0157 9.36507C13.0157 7.14284 11.1744 5.30157 8.95217 5.30157ZM8.95217 11.9682C7.52359 11.9682 6.34899 10.7936 6.34899 9.36507C6.34899 7.9365 7.52359 6.76189 8.95217 6.76189C10.3807 6.76189 11.5553 7.9365 11.5553 9.36507C11.5553 10.7936 10.3807 11.9682 8.95217 11.9682Z"/>
      <path d="M13.1745 6.12698C13.683 6.12698 14.0952 5.71479 14.0952 5.20634C14.0952 4.69789 13.683 4.28571 13.1745 4.28571C12.6661 4.28571 12.2539 4.69789 12.2539 5.20634C12.2539 5.71479 12.6661 6.12698 13.1745 6.12698Z"/>
      <path d="M15.5553 2.82539C14.7299 1.96825 13.5553 1.5238 12.222 1.5238H5.68228C2.92037 1.5238 1.0791 3.36507 1.0791 6.12698V12.6349C1.0791 14 1.52355 15.1746 2.41243 16.0317C3.26958 16.8571 4.41243 17.2698 5.71402 17.2698H12.1902C13.5553 17.2698 14.6981 16.8254 15.5235 16.0317C16.3807 15.2063 16.8251 14.0317 16.8251 12.6667V6.12698C16.8251 4.79364 16.3807 3.65079 15.5553 2.82539ZM15.4283 12.6667C15.4283 13.6508 15.0791 14.4444 14.5077 14.9841C13.9362 15.5238 13.1426 15.8095 12.1902 15.8095H5.71402C4.76164 15.8095 3.96799 15.5238 3.39656 14.9841C2.82513 14.4127 2.53942 13.619 2.53942 12.6349V6.12698C2.53942 5.1746 2.82513 4.38095 3.39656 3.80952C3.93624 3.26984 4.76164 2.98412 5.71402 2.98412H12.2537C13.2061 2.98412 13.9997 3.26984 14.5712 3.84126C15.1108 4.41269 15.4283 5.20634 15.4283 6.12698V12.6667Z"/>
    </g>
  </symbol>

  <symbol id="facebook-icon" width="19" height="19" viewBox="0 0 19 19">
    <g>
      <path fill-rule="evenodd" clip-rule="evenodd" d="M9.8578 6.86126H12.3886L12.2121 9.19273H9.85776V17.293H6.884V9.1927H5.29688V6.86123H6.884V5.29432C6.884 4.60498 6.90123 3.5392 7.39503 2.87928C7.91538 2.18155 8.63 1.70703 9.8578 1.70703C11.859 1.70703 12.7028 1.99615 12.7028 1.99615L12.3059 4.3841C12.3059 4.3841 11.6449 4.18983 11.0276 4.18983C10.4104 4.18983 9.85783 4.41353 9.85783 5.04075V6.86126H9.8578Z"/>
    </g>
  </symbol>

  <symbol id="vkontakte-icon" width="27" height="27" viewBox="0 0 27 27">
    <g>
      <path d="M24.2411 7.8751H20.5393C20.3882 7.87509 20.2399 7.91606 20.1102 7.99363C19.9806 8.0712 19.8744 8.18247 19.8029 8.3156C19.8029 8.3156 18.3265 11.0346 17.8523 11.9505C16.5764 14.4142 15.7503 13.6407 15.7503 12.4973V8.55479C15.7503 8.22534 15.6194 7.90938 15.3864 7.67642C15.1535 7.44347 14.8375 7.3126 14.5081 7.3126H11.7248C11.3458 7.28441 10.9658 7.3536 10.6211 7.51358C10.2763 7.67356 9.97816 7.91902 9.75495 8.22666C9.75495 8.22666 11.1682 7.99815 11.1682 9.90244C11.1682 10.3746 11.1926 11.7331 11.2147 12.8724C11.2189 13.0403 11.1715 13.2055 11.0788 13.3456C10.9862 13.4856 10.8528 13.5939 10.6966 13.6558C10.5405 13.7176 10.3691 13.7301 10.2057 13.6915C10.0422 13.6528 9.89454 13.565 9.78261 13.4398C8.64338 11.8553 7.69972 10.139 6.97213 8.32825C6.90964 8.19279 6.80962 8.0781 6.68391 7.99778C6.5582 7.91746 6.4121 7.87488 6.26292 7.8751C5.46012 7.8751 3.85364 7.8751 2.89961 7.8751C2.80709 7.87447 2.71581 7.8963 2.6336 7.93874C2.55139 7.98117 2.48071 8.04293 2.42763 8.1187C2.37455 8.19447 2.34066 8.282 2.32888 8.37376C2.31709 8.46553 2.32775 8.55878 2.35996 8.64551C3.38122 11.4468 7.7805 20.2501 12.8018 20.2501H14.9153C15.1368 20.2501 15.3491 20.1621 15.5057 20.0055C15.6623 19.8489 15.7503 19.6366 15.7503 19.4151V18.1389C15.7503 17.9788 15.7971 17.8222 15.885 17.6884C15.9729 17.5546 16.0981 17.4495 16.245 17.3859C16.3919 17.3224 16.5542 17.3032 16.712 17.3307C16.8697 17.3583 17.0159 17.4314 17.1325 17.541L19.6622 19.9178C19.8894 20.1312 20.1894 20.2501 20.5011 20.2501H23.8231C25.4252 20.2501 25.4252 19.1383 24.5517 18.278C23.9369 17.6726 21.7186 15.3343 21.7186 15.3343C21.5286 15.1375 21.4153 14.8793 21.3991 14.6062C21.383 14.3332 21.465 14.0633 21.6304 13.8455C22.3475 12.9019 23.5203 11.3573 24.0177 10.6955C24.6975 9.79112 25.928 7.8751 24.2411 7.8751Z"/>
    </g>
  </symbol>

  <symbol id="twitter-icon" width="21" height="21" viewBox="0 0 21 21">
    <g>
      <path d="M19.572 5.58035C18.9012 5.87854 18.1793 6.07967 17.4218 6.16969C18.1952 5.70666 18.7882 4.97324 19.0679 4.09832C18.3445 4.52763 17.5436 4.83915 16.6906 5.00732C16.0079 4.27982 15.0348 3.82495 13.958 3.82495C11.8907 3.82495 10.2146 5.50108 10.2146 7.56875C10.2146 7.86175 10.2475 8.14734 10.3116 8.42181C7.20013 8.2655 4.44127 6.77532 2.59475 4.51022C2.27248 5.06288 2.08802 5.70592 2.08802 6.39268C2.08802 7.69135 2.74884 8.83742 3.75341 9.50862C3.14 9.48898 2.56252 9.32044 2.05764 9.04004C2.05727 9.0556 2.05727 9.07153 2.05727 9.08745C2.05727 10.901 3.3478 12.4138 5.06061 12.7583C4.74649 12.8435 4.41571 12.8894 4.07419 12.8894C3.83268 12.8894 3.5982 12.8661 3.36966 12.822C3.84638 14.3092 5.22878 15.3919 6.86676 15.4219C5.58549 16.4261 3.97158 17.0247 2.21729 17.0247C1.9154 17.0247 1.61722 17.0069 1.32422 16.9721C2.98146 18.0349 4.94911 18.6542 7.06308 18.6542C13.9495 18.6542 17.7148 12.9498 17.7148 8.0025C17.7148 7.84026 17.7114 7.67839 17.7044 7.51763C18.4356 6.9909 19.0705 6.33119 19.572 5.58035Z"/>
    </g>
  </symbol>

  <symbol id="bi-person" width="30" height="30" viewBox="0 0 30 30">
    <g>
      <path d="m11 13.4c-1.1-1.1-1.6-2.5-1.6-4 0-1.5 0.5-2.9 1.6-4 1-1.1 2.5-1.7 4-1.7 1.5 0 2.9 0.6 3.9 1.7 1.1 1.1 1.7 2.5 1.7 4 0 1.5-0.6 2.9-1.7 4-1 1-2.4 1.6-3.9 1.6-1.5 0-3-0.6-4-1.6zm6.6-6.7c-0.7-0.7-1.6-1.1-2.6-1.1-1 0-2 0.4-2.7 1.1-0.7 0.7-1.1 1.7-1.1 2.7 0 1 0.4 1.9 1.1 2.6 0.7 0.7 1.7 1.1 2.7 1.1 1 0 1.9-0.4 2.6-1.1 0.7-0.7 1.1-1.6 1.1-2.6 0-1-0.4-2-1.1-2.7zm8.6 17.7c0 1.9-1.9 1.9-1.9 1.9h-18.7c0 0-1.9 0-1.9-1.9 0-1.9 1.9-7.5 11.3-7.5 9.3 0 11.2 5.6 11.2 7.5zm-1.9 0c0-0.5-0.3-1.9-1.5-3.2-1.3-1.2-3.6-2.4-7.8-2.4-4.3 0-6.6 1.2-7.8 2.4-1.3 1.3-1.6 2.7-1.6 3.2z"/>
    </g>
  </symbol>

  <symbol id="catalog-arrow-down" width="16" height="9" viewBox="0 0 16 9">
    <g>
      <path d="M7.9993 8.00003C7.76565 8.00049 7.53921 7.91911 7.3593 7.77003L1.3593 2.77003C1.15508 2.60029 1.02666 2.35638 1.00228 2.09196C0.977899 1.82753 1.05956 1.56425 1.2293 1.36003C1.39904 1.15581 1.64295 1.02739 1.90738 1.00301C2.1718 0.978631 2.43508 1.06029 2.6393 1.23003L7.9993 5.71003L13.3593 1.39003C13.4616 1.30697 13.5793 1.24494 13.7056 1.2075C13.832 1.17007 13.9645 1.15798 14.0955 1.17192C14.2265 1.18586 14.3535 1.22555 14.4691 1.28873C14.5848 1.3519 14.6868 1.43731 14.7693 1.54003C14.8609 1.64286 14.9302 1.76348 14.973 1.89436C15.0158 2.02523 15.0311 2.16353 15.018 2.30059C15.0048 2.43766 14.9635 2.57053 14.8967 2.69089C14.8298 2.81124 14.7387 2.91649 14.6293 3.00003L8.6293 7.83003C8.44421 7.95555 8.2224 8.0154 7.9993 8.00003Z"/>
    </g>
  </symbol>

  <symbol id="catalog-arrow-top" width="24" height="24" viewBox="0 0 24 24">
    <g>
      <path d="M12.0007 7.99997C12.2344 7.99951 12.4608 8.08089 12.6407 8.22997L18.6407 13.23C18.8449 13.3997 18.9733 13.6436 18.9977 13.908C19.0221 14.1725 18.9404 14.4358 18.7707 14.64C18.601 14.8442 18.3571 14.9726 18.0926 14.997C17.8282 15.0214 17.5649 14.9397 17.3607 14.77L12.0007 10.29L6.6407 14.61C6.53841 14.693 6.42072 14.7551 6.29438 14.7925C6.16804 14.8299 6.03555 14.842 5.90452 14.8281C5.77349 14.8141 5.64651 14.7744 5.53087 14.7113C5.41523 14.6481 5.31322 14.5627 5.2307 14.46C5.13912 14.3571 5.06976 14.2365 5.02697 14.1056C4.98418 13.9748 4.96887 13.8365 4.98202 13.6994C4.99516 13.5623 5.03647 13.4295 5.10335 13.3091C5.17023 13.1888 5.26125 13.0835 5.3707 13L11.3707 8.16997C11.5558 8.04445 11.7776 7.9846 12.0007 7.99997Z" fill="#02A676"/>
    </g>
  </symbol>

  <symbol id="logo" width="203" height="63" viewBox="0 0 203 63" fill="none">
    <g>
      <line x1="4" y1="57.5" x2="202" y2="57.5" stroke="#02A676" stroke-width="3"/>
      <path d="M4.15 15H12.25V43.4H29.8V50H4.15V15ZM61.4258 43.5V50H34.3258V15H60.7758V21.5H42.3758V29.1H58.6258V35.4H42.3758V43.5H61.4258ZM80.6207 36.25L75.9207 41.15V50H67.8707V15H75.9207V31.35L91.4207 15H100.421L85.9207 30.6L101.271 50H91.8207L80.6207 36.25ZM123.689 50.4C122.322 50.4 121.172 49.9333 120.239 49C119.305 48.0667 118.839 46.9 118.839 45.5C118.839 44.0667 119.305 42.9167 120.239 42.05C121.172 41.15 122.322 40.7 123.689 40.7C125.055 40.7 126.205 41.15 127.139 42.05C128.072 42.9167 128.539 44.0667 128.539 45.5C128.539 46.9 128.072 48.0667 127.139 49C126.205 49.9333 125.055 50.4 123.689 50.4ZM160.075 31.8C162.075 32.4333 163.641 33.5 164.775 35C165.908 36.4667 166.475 38.2833 166.475 40.45C166.475 43.5167 165.275 45.8833 162.875 47.55C160.508 49.1833 157.041 50 152.475 50H134.375V15H151.475C155.741 15 159.008 15.8167 161.275 17.45C163.575 19.0833 164.725 21.3 164.725 24.1C164.725 25.8 164.308 27.3167 163.475 28.65C162.675 29.9833 161.541 31.0333 160.075 31.8ZM142.425 21.1V29.35H150.475C152.475 29.35 153.991 29 155.025 28.3C156.058 27.6 156.575 26.5667 156.575 25.2C156.575 23.8333 156.058 22.8167 155.025 22.15C153.991 21.45 152.475 21.1 150.475 21.1H142.425ZM151.875 43.9C154.008 43.9 155.608 43.55 156.675 42.85C157.775 42.15 158.325 41.0667 158.325 39.6C158.325 36.7 156.175 35.25 151.875 35.25H142.425V43.9H151.875ZM188.675 37.6V50H180.575V37.5L167.025 15H175.625L184.975 30.55L194.325 15H202.275L188.675 37.6Z" fill="#404040"/>
      <path d="M104.882 15H112.982V50H104.882V15Z" fill="#02A676"/>
      <g clip-path="url(#clip0_1723_97)">
      <path d="M109 0.1875C105.789 0.1875 103.188 2.78906 103.188 6C103.188 9.21094 105.789 11.8125 109 11.8125C112.211 11.8125 114.812 9.21094 114.812 6C114.812 2.78906 112.211 0.1875 109 0.1875ZM112.375 6.65625C112.375 6.81094 112.248 6.9375 112.094 6.9375H109.938V9.09375C109.938 9.24844 109.811 9.375 109.656 9.375H108.344C108.189 9.375 108.062 9.24844 108.062 9.09375V6.9375H105.906C105.752 6.9375 105.625 6.81094 105.625 6.65625V5.34375C105.625 5.18906 105.752 5.0625 105.906 5.0625H108.062V2.90625C108.062 2.75156 108.189 2.625 108.344 2.625H109.656C109.811 2.625 109.938 2.75156 109.938 2.90625V5.0625H112.094C112.248 5.0625 112.375 5.18906 112.375 5.34375V6.65625Z" fill="#02A676"/>
    </g>
  </symbol>

  <symbol id="catalog-arrow-right" width="25" height="25" viewBox="0 0 25 25">
    <g>
      <path d="M16.0726 12.0961C16.0716 12.3298 15.9889 12.5557 15.8387 12.7347L10.8027 18.7045C10.6317 18.9077 10.387 19.0346 10.1225 19.0574C9.85791 19.0802 9.59513 18.9969 9.39194 18.826C9.18874 18.655 9.06179 18.4103 9.03901 18.1458C9.01622 17.8812 9.09947 17.6184 9.27043 17.4152L13.7826 12.0823L9.495 6.69638C9.41256 6.59359 9.35123 6.47553 9.31456 6.34897C9.27789 6.2224 9.2666 6.08984 9.28133 5.9589C9.29606 5.82796 9.33652 5.70122 9.40039 5.58596C9.46425 5.47071 9.55027 5.36921 9.65349 5.28731C9.75687 5.19635 9.87791 5.12772 10.009 5.08572C10.1402 5.04371 10.2786 5.02925 10.4155 5.04321C10.5525 5.05718 10.6851 5.09929 10.8051 5.16689C10.925 5.2345 11.0297 5.32615 11.1126 5.4361L15.9064 11.4651C16.0308 11.6509 16.0893 11.8731 16.0726 12.0961Z"/>
    </g>
  </symbol>

</svg>