<svg width="21" height="21" viewBox="0 0 21 21" fill="none" xmlns="http://www.w3.org/2000/svg">
<g id="iconfinder_03-twitter_104501 1">
<path id="Vector" d="M19.572 5.58035C18.9012 5.87854 18.1793 6.07967 17.4218 6.16969C18.1952 5.70666 18.7882 4.97324 19.0679 4.09832C18.3445 4.52763 17.5436 4.83915 16.6906 5.00732C16.0079 4.27982 15.0348 3.82495 13.958 3.82495C11.8907 3.82495 10.2146 5.50108 10.2146 7.56875C10.2146 7.86175 10.2475 8.14734 10.3116 8.42181C7.20013 8.2655 4.44127 6.77532 2.59475 4.51022C2.27248 5.06288 2.08802 5.70592 2.08802 6.39268C2.08802 7.69135 2.74884 8.83742 3.75341 9.50862C3.14 9.48898 2.56252 9.32044 2.05764 9.04004C2.05727 9.0556 2.05727 9.07153 2.05727 9.08745C2.05727 10.901 3.3478 12.4138 5.06061 12.7583C4.74649 12.8435 4.41571 12.8894 4.07419 12.8894C3.83268 12.8894 3.5982 12.8661 3.36966 12.822C3.84638 14.3092 5.22878 15.3919 6.86676 15.4219C5.58549 16.4261 3.97158 17.0247 2.21729 17.0247C1.9154 17.0247 1.61722 17.0069 1.32422 16.9721C2.98146 18.0349 4.94911 18.6542 7.06308 18.6542C13.9495 18.6542 17.7148 12.9498 17.7148 8.0025C17.7148 7.84026 17.7114 7.67839 17.7044 7.51763C18.4356 6.9909 19.0705 6.33119 19.572 5.58035Z" fill="white"/>
</g>
</svg>
