<svg width="27" height="27" viewBox="0 0 27 27" fill="none" xmlns="http://www.w3.org/2000/svg">
<g id="iconfinder_038_018_vkontakte_vk_social_network_android_material_1646921 1">
<path id="Vector" d="M24.2411 7.8751H20.5393C20.3882 7.87509 20.2399 7.91606 20.1102 7.99363C19.9806 8.0712 19.8744 8.18247 19.8029 8.3156C19.8029 8.3156 18.3265 11.0346 17.8523 11.9505C16.5764 14.4142 15.7503 13.6407 15.7503 12.4973V8.55479C15.7503 8.22534 15.6194 7.90938 15.3864 7.67642C15.1535 7.44347 14.8375 7.3126 14.5081 7.3126H11.7248C11.3458 7.28441 10.9658 7.3536 10.6211 7.51358C10.2763 7.67356 9.97816 7.91902 9.75495 8.22666C9.75495 8.22666 11.1682 7.99815 11.1682 9.90244C11.1682 10.3746 11.1926 11.7331 11.2147 12.8724C11.2189 13.0403 11.1715 13.2055 11.0788 13.3456C10.9862 13.4856 10.8528 13.5939 10.6966 13.6558C10.5405 13.7176 10.3691 13.7301 10.2057 13.6915C10.0422 13.6528 9.89454 13.565 9.78261 13.4398C8.64338 11.8553 7.69972 10.139 6.97213 8.32825C6.90964 8.19279 6.80962 8.0781 6.68391 7.99778C6.5582 7.91746 6.4121 7.87488 6.26292 7.8751C5.46012 7.8751 3.85364 7.8751 2.89961 7.8751C2.80709 7.87447 2.71581 7.8963 2.6336 7.93874C2.55139 7.98117 2.48071 8.04293 2.42763 8.1187C2.37455 8.19447 2.34066 8.282 2.32888 8.37376C2.31709 8.46553 2.32775 8.55878 2.35996 8.64551C3.38122 11.4468 7.7805 20.2501 12.8018 20.2501H14.9153C15.1368 20.2501 15.3491 20.1621 15.5057 20.0055C15.6623 19.8489 15.7503 19.6366 15.7503 19.4151V18.1389C15.7503 17.9788 15.7971 17.8222 15.885 17.6884C15.9729 17.5546 16.0981 17.4495 16.245 17.3859C16.3919 17.3224 16.5542 17.3032 16.712 17.3307C16.8697 17.3583 17.0159 17.4314 17.1325 17.541L19.6622 19.9178C19.8894 20.1312 20.1894 20.2501 20.5011 20.2501H23.8231C25.4252 20.2501 25.4252 19.1383 24.5517 18.278C23.9369 17.6726 21.7186 15.3343 21.7186 15.3343C21.5286 15.1375 21.4153 14.8793 21.3991 14.6062C21.383 14.3332 21.465 14.0633 21.6304 13.8455C22.3475 12.9019 23.5203 11.3573 24.0177 10.6955C24.6975 9.79112 25.928 7.8751 24.2411 7.8751Z" fill="white"/>
</g>
</svg>
