<svg width="26" height="20" viewBox="0 0 26 20" fill="none" xmlns="http://www.w3.org/2000/svg">
<path d="M0.842102 6.076V16C0.842102 17.0609 1.28109 18.0783 2.06249 18.8284C2.84389 19.5786 3.9037 20 5.00877 20H21.6754C22.7805 20 23.8403 19.5786 24.6217 18.8284C25.4031 18.0783 25.8421 17.0609 25.8421 16V4C25.8421 2.93913 25.4031 1.92172 24.6217 1.17157C23.8403 0.421427 22.7805 0 21.6754 0H5.00877C3.9037 0 2.84389 0.421427 2.06249 1.17157C1.28109 1.92172 0.842102 2.93913 0.842102 4V6.076ZM5.00877 2H21.6754C22.228 2 22.7579 2.21071 23.1486 2.58579C23.5393 2.96086 23.7588 3.46957 23.7588 4V5.48L13.3421 10.864L2.92544 5.48V4C2.92544 3.46957 3.14493 2.96086 3.53563 2.58579C3.92633 2.21071 4.45623 2 5.00877 2ZM2.92544 7.752L12.8484 12.88C13.0001 12.9584 13.1698 12.9995 13.3421 12.9995C13.5144 12.9995 13.6841 12.9584 13.8359 12.88L23.7588 7.752V16C23.7588 16.5304 23.5393 17.0391 23.1486 17.4142C22.7579 17.7893 22.228 18 21.6754 18H5.00877C4.45623 18 3.92633 17.7893 3.53563 17.4142C3.14493 17.0391 2.92544 16.5304 2.92544 16V7.752Z" fill="#595959"/>
</svg>
