<svg width="26" height="23" viewBox="0 0 26 23" fill="none" xmlns="http://www.w3.org/2000/svg">
<path d="M19.8284 6.74045C20.6852 6.74045 21.3797 6.12261 21.3797 5.36045C21.3797 4.5983 20.6852 3.98045 19.8284 3.98045C18.9717 3.98045 18.2771 4.5983 18.2771 5.36045C18.2771 6.12261 18.9717 6.74045 19.8284 6.74045Z" fill="#595959"/>
<path d="M12.9274 5.59502C11.6145 5.59502 10.3311 5.94135 9.23941 6.59023C8.14776 7.23911 7.29692 8.16138 6.79449 9.24042C6.29206 10.3195 6.16061 11.5068 6.41674 12.6523C6.67288 13.7978 7.30511 14.85 8.23348 15.6759C9.16185 16.5018 10.3447 17.0642 11.6323 17.292C12.92 17.5199 14.2548 17.403 15.4677 16.956C16.6807 16.5091 17.7174 15.7522 18.4469 14.781C19.1763 13.8099 19.5656 12.6682 19.5656 11.5003C19.5656 9.9341 18.8662 8.43207 17.6213 7.32462C16.3764 6.21717 14.688 5.59502 12.9274 5.59502ZM12.9274 15.3336C12.0751 15.3336 11.242 15.1088 10.5334 14.6876C9.82474 14.2664 9.27243 13.6677 8.94628 12.9672C8.62014 12.2668 8.5348 11.496 8.70107 10.7524C8.86734 10.0088 9.27774 9.32579 9.88039 8.78969C10.483 8.25359 11.2508 7.8885 12.0867 7.74059C12.9226 7.59268 13.789 7.66859 14.5764 7.95873C15.3638 8.24886 16.0368 8.74019 16.5103 9.37058C16.9838 10.001 17.2365 10.7421 17.2365 11.5003C17.2365 12.5169 16.7825 13.492 15.9744 14.2108C15.1663 14.9297 14.0702 15.3336 12.9274 15.3336Z" fill="#595959"/>
<path d="M12.9274 2.07192C16.379 2.07192 16.7883 2.08342 18.1511 2.139C18.9707 2.14766 19.7826 2.28153 20.5513 2.53479C21.109 2.72616 21.6154 3.01927 22.0381 3.39526C22.4607 3.77125 22.7902 4.22178 23.0053 4.71788C23.29 5.40167 23.4405 6.1239 23.4502 6.85304C23.5127 8.06533 23.5257 8.4295 23.5257 11.501C23.5257 14.5724 23.5127 14.9347 23.4502 16.147C23.4405 16.8761 23.29 17.5983 23.0053 18.2821C22.7902 18.7782 22.4607 19.2288 22.0381 19.6047C21.6154 19.9807 21.109 20.2738 20.5513 20.4652C19.7826 20.7185 18.9707 20.8523 18.1511 20.861C16.7883 20.9166 16.379 20.9281 12.9274 20.9281C9.47576 20.9281 9.06639 20.9166 7.70363 20.861C6.884 20.8523 6.07212 20.7185 5.30345 20.4652C4.74578 20.2738 4.23933 19.9807 3.81668 19.6047C3.39402 19.2288 3.06453 18.7782 2.84941 18.2821C2.56472 17.5983 2.41422 16.8761 2.40449 16.147C2.34201 14.9347 2.32908 14.5705 2.32908 11.5C2.32908 8.4295 2.34201 8.06533 2.40449 6.85304C2.41422 6.1239 2.56472 5.40167 2.84941 4.71788C3.06453 4.22178 3.39402 3.77125 3.81668 3.39526C4.23933 3.01927 4.74578 2.72616 5.30345 2.53479C6.07212 2.28153 6.884 2.14766 7.70363 2.139C9.06639 2.08342 9.47576 2.07192 12.9274 2.07192ZM12.9274 0C9.41651 0 8.9759 0.0134167 7.59698 0.069C6.52485 0.0882588 5.46414 0.269071 4.45994 0.60375C3.60105 0.899202 2.82103 1.35104 2.16988 1.93029C1.51873 2.50955 1.01081 3.20344 0.678687 3.9675C0.302348 4.86112 0.0990919 5.80504 0.0775642 6.75913C0.015082 7.98579 0 8.37583 0 11.5C0 14.6242 0.015082 15.0152 0.0775642 16.2418C0.0992134 17.1956 0.302467 18.1392 0.678687 19.0325C1.01081 19.7966 1.51873 20.4905 2.16988 21.0697C2.82103 21.649 3.60105 22.1008 4.45994 22.3962C5.46448 22.731 6.52556 22.9118 7.59806 22.931C8.97698 22.9866 9.41651 23 12.9274 23C16.4382 23 16.8788 22.9866 18.2578 22.931C19.3303 22.9118 20.3913 22.731 21.3959 22.3962C22.2548 22.1008 23.0348 21.649 23.6859 21.0697C24.3371 20.4905 24.845 19.7966 25.1771 19.0325C25.5531 18.1388 25.756 17.1949 25.7772 16.2409C25.8397 15.0142 25.8547 14.6242 25.8547 11.5C25.8547 8.37583 25.8397 7.98483 25.7772 6.75817C25.7555 5.80441 25.5523 4.86082 25.1761 3.9675C24.8439 3.20344 24.336 2.50955 23.6849 1.93029C23.0337 1.35104 22.2537 0.899202 21.3948 0.60375C20.3902 0.269291 19.3291 0.0888022 18.2567 0.0699583C16.8778 0.0124583 16.4393 0 12.9274 0Z" fill="#595959"/>
</svg>
