<svg width="212" height="45" viewBox="0 0 212 45" fill="none" xmlns="http://www.w3.org/2000/svg">
<path d="M30.4966 43.4644C29.3328 43.4644 28.1512 43.3569 26.9517 43.1421C25.77 42.9451 24.5705 42.6766 23.353 42.3364C22.1356 42.0142 20.9181 41.6561 19.7007 41.2622C18.4832 40.8683 17.2837 40.4834 16.1021 40.1074C14.6877 40.9668 13.2106 41.6382 11.6709 42.1216C10.1312 42.6229 8.5109 42.8735 6.81006 42.8735C5.35986 42.8735 4.24984 42.6139 3.47998 42.0947C2.71012 41.5755 2.3252 40.8862 2.3252 40.0269C2.3252 38.8989 2.95182 38.0306 4.20508 37.4219C5.45833 36.8132 7.35612 36.5088 9.89844 36.5088C11.0085 36.5088 12.1274 36.5894 13.2554 36.7505C14.3833 36.9116 15.5291 37.1175 16.6929 37.3682C17.8208 36.3835 18.895 35.2734 19.9155 34.0381C20.936 32.8027 21.9297 31.4779 22.8965 30.0635C22.1624 30.153 21.4194 30.2246 20.6675 30.2783C19.9155 30.3141 19.1546 30.332 18.3848 30.332C15.5739 30.332 13.0674 30.0008 10.8652 29.3384C8.66309 28.658 6.80111 27.736 5.2793 26.5723C3.75749 25.3906 2.59375 24.012 1.78809 22.4365C1.00033 20.8431 0.606445 19.1333 0.606445 17.3071C0.606445 15.1587 1.01823 13.252 1.8418 11.5869C2.66536 9.92188 3.79329 8.52539 5.22559 7.39746C6.67578 6.25163 8.37663 5.3833 10.3281 4.79248C12.2796 4.18376 14.3743 3.87939 16.6123 3.87939C18.0267 3.87939 19.3158 3.98682 20.4795 4.20166C21.6432 4.4165 22.6458 4.64925 23.4873 4.8999C24.3467 5.15055 25.0181 5.39225 25.5015 5.625C25.9849 5.85775 26.2534 5.98307 26.3071 6.00098L25.6089 7.20947C25.591 7.20947 25.3672 7.111 24.9375 6.91406C24.5078 6.69922 23.917 6.47542 23.165 6.24268C22.4131 6.00993 21.5179 5.79508 20.4795 5.59814C19.4411 5.4012 18.3221 5.30273 17.1226 5.30273C15.0099 5.30273 13.1121 5.61605 11.4292 6.24268C9.76416 6.8514 8.34977 7.69287 7.18604 8.76709C6.0402 9.84131 5.15397 11.1035 4.52734 12.5537C3.91862 13.986 3.61426 15.5168 3.61426 17.146C3.61426 18.9722 4.03499 20.6104 4.87646 22.0605C5.71794 23.4928 6.84587 24.7103 8.26025 25.7129C9.67464 26.6976 11.3128 27.4495 13.1748 27.9688C15.0547 28.488 17.0241 28.7476 19.083 28.7476C19.9245 28.7476 20.748 28.7207 21.5537 28.667C22.3773 28.6133 23.1919 28.5238 23.9976 28.3984C25.2687 26.4111 26.4951 24.3522 27.6768 22.2217C28.8763 20.0911 30.0669 18.0054 31.2485 15.9644C32.4302 13.9233 33.6208 11.9897 34.8203 10.1636C36.0199 8.3195 37.2642 6.70817 38.5532 5.32959C39.8602 3.95101 41.2298 2.85889 42.6621 2.05322C44.0944 1.22965 45.6341 0.817871 47.2812 0.817871C47.9258 0.817871 48.5256 0.925293 49.0806 1.14014C49.6356 1.33708 50.119 1.65039 50.5308 2.08008C50.9425 2.49186 51.2648 3.02002 51.4976 3.66455C51.7303 4.30908 51.8467 5.06104 51.8467 5.92041C51.8467 7.31689 51.5781 8.79395 51.041 10.3516C50.5039 11.8913 49.7251 13.4399 48.7046 14.9976C47.6841 16.5373 46.4398 18.0591 44.9717 19.563C43.5036 21.049 41.8385 22.4276 39.9766 23.6987C38.1146 24.9699 36.0736 26.1068 33.8535 27.1094C31.6335 28.0941 29.2702 28.8639 26.7637 29.4189C25.582 31.0482 24.3646 32.5879 23.1113 34.0381C21.8581 35.4704 20.5332 36.7684 19.1367 37.9321C20.4974 38.2902 21.8312 38.6751 23.1382 39.0869C24.4451 39.4808 25.6805 39.8389 26.8442 40.1611C28.0259 40.5013 29.118 40.7788 30.1206 40.9937C31.1232 41.2264 32.0094 41.3428 32.7793 41.3428C33.9251 41.3428 35.0262 41.1458 36.0825 40.752C37.1567 40.3581 38.222 39.6598 39.2783 38.6572L40.3794 39.5166C40.3615 39.5345 40.263 39.6509 40.084 39.8657C39.9049 40.0627 39.6364 40.3044 39.2783 40.5908C38.9202 40.8952 38.4727 41.2085 37.9355 41.5308C37.3984 41.8709 36.7629 42.1842 36.0288 42.4707C35.3127 42.7572 34.4891 42.9899 33.5581 43.1689C32.645 43.3659 31.6245 43.4644 30.4966 43.4644ZM47.3887 2.29492C46.3861 2.29492 45.3924 2.65299 44.4077 3.36914C43.423 4.08529 42.4294 5.06104 41.4268 6.29639C40.4242 7.51383 39.4036 8.95508 38.3652 10.6201C37.3447 12.2673 36.2884 14.0308 35.1963 15.9106C34.1042 17.7726 32.9673 19.6973 31.7856 21.6846C30.604 23.6719 29.3687 25.6234 28.0796 27.5391C30.228 26.9482 32.269 26.1784 34.2026 25.2295C36.1541 24.2806 37.9535 23.2153 39.6006 22.0337C41.2656 20.8521 42.7606 19.5898 44.0854 18.2471C45.4282 16.8864 46.5651 15.4989 47.4961 14.0845C48.445 12.6701 49.1701 11.2736 49.6714 9.89502C50.1727 8.49854 50.4233 7.16471 50.4233 5.89355C50.4233 5.23112 50.3428 4.67611 50.1816 4.22852C50.0205 3.76302 49.7967 3.38704 49.5103 3.10059C49.2417 2.81413 48.9194 2.60824 48.5435 2.48291C48.1854 2.35758 47.8005 2.29492 47.3887 2.29492ZM6.64893 41.4771C7.9738 41.4771 9.22705 41.2891 10.4087 40.9131C11.5903 40.555 12.7362 40.0537 13.8462 39.4092C12.6646 39.069 11.5187 38.7915 10.4087 38.5767C9.31657 38.3618 8.26025 38.2544 7.23975 38.2544C6.0223 38.2544 5.12712 38.4334 4.5542 38.7915C3.99919 39.1496 3.72168 39.5614 3.72168 40.0269C3.72168 40.1701 3.75749 40.3223 3.8291 40.4834C3.91862 40.6624 4.0708 40.8236 4.28564 40.9668C4.50049 41.11 4.7959 41.2264 5.17188 41.3159C5.54785 41.4233 6.0402 41.4771 6.64893 41.4771ZM91.0825 1.38184C90.7961 1.73991 90.5186 2.08903 90.25 2.4292C89.9993 2.75146 89.7487 3.09163 89.498 3.44971C91.3063 4.11214 92.7655 4.93571 93.8755 5.92041C94.9855 6.88721 95.8449 7.90771 96.4536 8.98193C97.0623 10.0382 97.4652 11.0856 97.6621 12.124C97.877 13.1445 97.9844 14.0308 97.9844 14.7827C97.9844 15.839 97.8053 16.8506 97.4473 17.8174C97.1071 18.7663 96.6416 19.6346 96.0508 20.4224C95.4779 21.2101 94.8065 21.8994 94.0366 22.4902C93.2668 23.0632 92.4611 23.5018 91.6196 23.8062C93.3563 25.2384 94.6453 26.8319 95.4868 28.5864C96.3462 30.341 96.7759 32.1134 96.7759 33.9038C96.7759 35.4077 96.4626 36.8311 95.8359 38.1738C95.2272 39.5166 94.3947 40.6893 93.3384 41.6919C92.2821 42.6945 91.0288 43.4912 89.5786 44.082C88.1463 44.6729 86.6156 44.9683 84.9863 44.9683C83.5719 44.9683 82.265 44.7355 81.0654 44.27C79.8838 43.8224 78.8185 43.2048 77.8696 42.417C76.9386 41.6292 76.124 40.6982 75.4258 39.624C74.7454 38.5498 74.2083 37.404 73.8145 36.1865L75.1572 35.7837C75.8197 37.9321 76.9118 39.5882 78.4336 40.752C79.9554 41.9336 81.7905 42.5244 83.939 42.5244C85.2638 42.5244 86.526 42.2738 87.7256 41.7725C88.943 41.2891 90.0083 40.6266 90.9214 39.7852C91.8345 38.9258 92.5596 37.9232 93.0967 36.7773C93.6338 35.6136 93.9023 34.3604 93.9023 33.0176C93.9023 32.1045 93.777 31.2362 93.5264 30.4126C93.2757 29.589 92.9445 28.8102 92.5327 28.0762C92.1209 27.3421 91.6554 26.6707 91.1362 26.062C90.6349 25.4354 90.1157 24.8804 89.5786 24.397C89.0952 24.4865 88.6118 24.5581 88.1284 24.6118C87.645 24.6655 87.1706 24.6924 86.7051 24.6924C86.0605 24.6924 85.3981 24.6476 84.7178 24.5581C84.0553 24.4507 83.4466 24.2985 82.8916 24.1016C82.3545 23.9046 81.9069 23.645 81.5488 23.3228C81.2087 23.0005 81.0386 22.6066 81.0386 22.1411C81.0386 22.0337 81.0654 21.8815 81.1191 21.6846C81.1729 21.4697 81.2803 21.2638 81.4414 21.0669C81.6204 20.87 81.88 20.6999 82.2202 20.5566C82.5604 20.3955 83.0259 20.3149 83.6167 20.3149C84.1717 20.3149 84.7267 20.3776 85.2817 20.5029C85.8547 20.6283 86.4007 20.7983 86.9199 21.0132C87.4391 21.2101 87.9404 21.4429 88.4238 21.7114C88.9072 21.9621 89.3459 22.2217 89.7397 22.4902C90.3843 22.2038 91.0288 21.8188 91.6733 21.3354C92.3358 20.8341 92.9355 20.2254 93.4727 19.5093C94.0098 18.7931 94.4484 17.9696 94.7886 17.0386C95.1287 16.1076 95.2988 15.0602 95.2988 13.8965C95.2988 11.8555 94.7349 10.0203 93.6069 8.39111C92.479 6.76188 90.805 5.51758 88.585 4.6582C87.5107 6.16211 86.5081 7.65706 85.5771 9.14307C84.6462 10.6291 83.7778 12.1151 82.9722 13.6011C82.1665 15.0871 81.4056 16.5731 80.6895 18.0591C79.9912 19.5451 79.3198 21.049 78.6753 22.5708C77.1893 26.0441 75.7391 29.0161 74.3247 31.4868C72.9103 33.9396 71.3975 35.9448 69.7861 37.5024C68.1927 39.0601 66.4471 40.1969 64.5493 40.9131C62.6694 41.6471 60.512 42.0142 58.0771 42.0142C56.1973 42.0142 54.577 41.7008 53.2163 41.0742C51.8556 40.4655 50.7367 39.624 49.8594 38.5498C48.9821 37.4756 48.3286 36.2313 47.8989 34.8169C47.4871 33.3846 47.2812 31.8628 47.2812 30.2515C47.2812 28.4611 47.5677 26.617 48.1406 24.7192C48.7135 22.8035 49.564 20.8968 50.6919 18.999C51.408 17.7995 52.2943 16.5552 53.3506 15.2661C54.4069 13.9591 55.6154 12.679 56.9761 11.4258C58.3368 10.1546 59.8496 8.95508 61.5146 7.82715C63.1976 6.68132 65.0059 5.68766 66.9395 4.84619C68.891 3.98682 70.9678 3.30648 73.1699 2.80518C75.39 2.28597 77.7264 2.02637 80.1792 2.02637C81.6831 2.02637 83.0527 2.10693 84.2881 2.26807C85.5413 2.4113 86.6961 2.62614 87.7524 2.9126C88.1642 2.50081 88.576 2.08903 88.9878 1.67725C89.4175 1.26546 89.8561 0.853678 90.3037 0.441895L91.0825 1.38184ZM80.394 12.5269C81.3429 10.9513 82.3276 9.47428 83.3481 8.0957C84.3866 6.69922 85.4966 5.35645 86.6782 4.06738C85.9979 3.90625 85.2728 3.78092 84.5029 3.69141C83.751 3.60189 82.9543 3.55713 82.1128 3.55713C79.4093 3.55713 76.7417 3.93311 74.1099 4.68506C71.4959 5.41911 68.9984 6.44857 66.6172 7.77344C64.2539 9.09831 62.0607 10.6738 60.0376 12.5C58.0145 14.3262 56.2599 16.3135 54.7739 18.4619C53.3058 20.5924 52.151 22.8483 51.3096 25.2295C50.486 27.6107 50.0742 30.0277 50.0742 32.4805C50.0742 33.6979 50.2354 34.8079 50.5576 35.8105C50.8978 36.7952 51.3991 37.6457 52.0615 38.3618C52.724 39.0601 53.5386 39.6061 54.5054 40C55.4901 40.376 56.618 40.564 57.8892 40.564C60.0197 40.564 61.8817 40.1701 63.4751 39.3823C65.0685 38.5767 66.4829 37.4845 67.7183 36.106C68.9715 34.7274 70.0994 33.125 71.1021 31.2988C72.1047 29.4548 73.0804 27.4943 74.0293 25.4175C74.9961 23.3407 75.9808 21.2012 76.9834 18.999C77.986 16.7969 79.1229 14.6395 80.394 12.5269ZM87.9136 23.0273C87.645 22.8304 87.3228 22.6514 86.9468 22.4902C86.5887 22.3112 86.2127 22.168 85.8188 22.0605C85.425 21.9352 85.0311 21.8368 84.6372 21.7651C84.2433 21.6935 83.9032 21.6577 83.6167 21.6577C83.1154 21.6577 82.7931 21.7204 82.6499 21.8457C82.5246 21.9531 82.4619 22.0516 82.4619 22.1411C82.4619 22.3022 82.5783 22.4455 82.811 22.5708C83.0617 22.6961 83.366 22.8125 83.7241 22.9199C84.1001 23.0094 84.5119 23.0811 84.9595 23.1348C85.4071 23.1885 85.8457 23.2153 86.2754 23.2153C86.4723 23.2153 86.6961 23.2064 86.9468 23.1885C87.1974 23.1706 87.5197 23.1169 87.9136 23.0273ZM150.165 1.40869C149.001 2.07113 147.909 2.88574 146.888 3.85254C147.998 4.33594 149.019 4.93571 149.95 5.65186C150.899 6.368 151.713 7.20052 152.394 8.14941C153.092 9.09831 153.629 10.1725 154.005 11.3721C154.399 12.5537 154.596 13.8607 154.596 15.293C154.596 16.5104 154.381 17.6652 153.951 18.7573C153.539 19.8315 152.958 20.8073 152.206 21.6846C151.472 22.5439 150.585 23.278 149.547 23.8867C148.526 24.4775 147.407 24.8893 146.19 25.1221C146.781 25.9277 147.255 26.8229 147.613 27.8076C147.989 28.7744 148.177 29.8307 148.177 30.9766C148.177 31.4421 148.115 31.9971 147.989 32.6416C147.864 33.2682 147.703 33.9307 147.506 34.6289C147.327 35.3271 147.121 36.0343 146.888 36.7505C146.673 37.4487 146.467 38.1022 146.271 38.7109C146.091 39.3197 145.939 39.8568 145.814 40.3223C145.689 40.7878 145.626 41.1279 145.626 41.3428C145.626 41.862 145.769 42.2648 146.056 42.5513C146.36 42.8556 146.772 43.0078 147.291 43.0078C148.24 43.0078 149.135 42.8019 149.977 42.3901C150.818 41.9963 151.606 41.4591 152.34 40.7788C153.092 40.1164 153.799 39.3465 154.461 38.4692C155.124 37.5741 155.75 36.6431 156.341 35.6763C156.95 34.7095 157.523 33.7427 158.06 32.7759C158.615 31.7912 159.152 30.8602 159.671 29.9829L160.665 30.7349C159.537 32.7401 158.472 34.5841 157.469 36.2671C156.485 37.9321 155.473 39.3644 154.435 40.564C153.396 41.7814 152.295 42.7303 151.131 43.4106C149.968 44.091 148.643 44.4312 147.157 44.4312C145.778 44.4312 144.704 44.0462 143.934 43.2764C143.182 42.5244 142.806 41.4502 142.806 40.0537C142.806 39.0869 142.949 38.1649 143.236 37.2876C143.522 36.4103 143.836 35.5509 144.176 34.7095C144.534 33.868 144.856 33.0265 145.143 32.1851C145.429 31.3436 145.572 30.4663 145.572 29.5532C145.572 28.7476 145.438 27.9956 145.169 27.2974C144.919 26.5991 144.561 25.9367 144.095 25.3101C143.54 25.3101 142.905 25.2832 142.188 25.2295C141.49 25.1758 140.819 25.0684 140.174 24.9072C139.548 24.7461 139.02 24.5133 138.59 24.209C138.16 23.9046 137.945 23.5018 137.945 23.0005C137.945 22.5529 138.124 22.1948 138.482 21.9263C138.84 21.6398 139.369 21.4966 140.067 21.4966C140.873 21.4966 141.651 21.6846 142.403 22.0605C143.155 22.4186 143.898 22.8931 144.632 23.4839C145.671 23.2511 146.638 22.8304 147.533 22.2217C148.428 21.613 149.198 20.8879 149.842 20.0464C150.505 19.187 151.015 18.2381 151.373 17.1997C151.749 16.1613 151.937 15.096 151.937 14.0039C151.937 12.876 151.785 11.8465 151.48 10.9155C151.176 9.96663 150.746 9.11621 150.191 8.36426C149.636 7.6123 148.983 6.95882 148.231 6.40381C147.479 5.83089 146.655 5.35645 145.76 4.98047C144.4 6.46647 143.155 8.17627 142.027 10.1099C140.899 12.0256 139.816 14.0576 138.778 16.2061C137.757 18.3366 136.764 20.5208 135.797 22.7588C134.83 24.9788 133.819 27.1452 132.762 29.2578C131.724 31.3525 130.605 33.3309 129.405 35.1929C128.224 37.0549 126.908 38.6841 125.458 40.0806C124.025 41.4771 122.423 42.5781 120.65 43.3838C118.896 44.1895 116.917 44.5923 114.715 44.5923C112.997 44.5923 111.385 44.3237 109.881 43.7866C108.377 43.2495 107.062 42.4528 105.934 41.3965C104.806 40.3581 103.91 39.069 103.248 37.5293C102.604 35.9896 102.281 34.2171 102.281 32.2119C102.281 30.9945 102.424 29.6338 102.711 28.1299C103.015 26.626 103.49 25.0594 104.134 23.4302C104.779 21.783 105.602 20.127 106.605 18.4619C107.625 16.779 108.843 15.1497 110.257 13.5742C111.69 11.9987 113.337 10.5216 115.199 9.14307C117.079 7.76449 119.191 6.56494 121.537 5.54443C123.9 4.50602 126.514 3.69141 129.378 3.10059C132.243 2.50977 135.385 2.21436 138.805 2.21436C139.968 2.21436 141.123 2.31283 142.269 2.50977C143.415 2.6888 144.525 2.95736 145.599 3.31543C146.226 2.83203 146.879 2.37549 147.56 1.9458C148.24 1.49821 148.956 1.07747 149.708 0.683594L150.165 1.40869ZM114.044 43.1689C115.978 43.1689 117.696 42.784 119.2 42.0142C120.704 41.2443 122.065 40.2059 123.282 38.8989C124.5 37.5741 125.61 36.0254 126.612 34.2529C127.633 32.4626 128.618 30.5648 129.566 28.5596C130.533 26.5365 131.5 24.4417 132.467 22.2754C133.451 20.0911 134.517 17.9427 135.663 15.8301C136.808 13.7174 138.08 11.6854 139.476 9.73389C140.873 7.78239 142.475 6.00993 144.283 4.4165C142.636 3.93311 140.908 3.69141 139.1 3.69141C135.77 3.69141 132.601 4.139 129.593 5.03418C126.603 5.92936 123.819 7.13786 121.241 8.65967C118.681 10.1815 116.362 11.945 114.286 13.9502C112.227 15.9554 110.463 18.068 108.995 20.2881C107.545 22.4902 106.426 24.7461 105.638 27.0557C104.85 29.3473 104.457 31.5405 104.457 33.6353C104.457 34.9422 104.68 36.1776 105.128 37.3413C105.593 38.505 106.247 39.5166 107.088 40.376C107.93 41.2354 108.941 41.9157 110.123 42.417C111.305 42.9183 112.612 43.1689 114.044 43.1689ZM142.726 23.833C142.278 23.5286 141.804 23.269 141.302 23.0542C140.801 22.8394 140.362 22.7319 139.986 22.7319C139.736 22.7319 139.566 22.7677 139.476 22.8394C139.387 22.911 139.342 22.9915 139.342 23.0811C139.342 23.2422 139.458 23.3765 139.691 23.4839C139.924 23.5734 140.21 23.654 140.55 23.7256C140.908 23.7793 141.275 23.8151 141.651 23.833C142.045 23.8509 142.403 23.8509 142.726 23.833ZM209.703 0.76416C208.414 1.73096 207.206 2.88574 206.078 4.22852C207.17 4.90885 208.092 5.66081 208.844 6.48438C209.596 7.29004 210.195 8.11361 210.643 8.95508C211.109 9.79655 211.44 10.6291 211.637 11.4526C211.834 12.2762 211.932 13.0371 211.932 13.7354C211.932 15.4899 211.601 17.0207 210.938 18.3276C210.276 19.6167 209.399 20.6909 208.307 21.5503C207.232 22.4097 205.988 23.0542 204.574 23.4839C203.177 23.8957 201.727 24.1016 200.223 24.1016C198.54 24.1016 196.884 23.9136 195.255 23.5376C194.503 25.131 193.688 26.7155 192.811 28.291C191.934 29.8665 190.976 31.3794 189.938 32.8296C188.917 34.2619 187.798 35.6047 186.581 36.8579C185.381 38.0933 184.083 39.1585 182.687 40.0537C181.308 40.9668 179.813 41.6829 178.202 42.2021C176.59 42.7214 174.872 42.981 173.045 42.981C171.273 42.981 169.635 42.6945 168.131 42.1216C166.627 41.5487 165.329 40.7161 164.237 39.624C163.145 38.514 162.294 37.1712 161.686 35.5957C161.077 34.0023 160.772 32.1851 160.772 30.144C160.772 27.4943 161.22 24.943 162.115 22.4902C163.028 20.0374 164.273 17.7458 165.848 15.6152C167.442 13.4847 169.312 11.5511 171.461 9.81445C173.609 8.0778 175.928 6.5918 178.417 5.35645C180.905 4.12109 183.51 3.16325 186.231 2.48291C188.953 1.80257 191.674 1.4624 194.396 1.4624C196.526 1.4624 198.415 1.64144 200.062 1.99951C201.727 2.33968 203.195 2.79622 204.466 3.36914C205.182 2.74251 205.934 2.16064 206.722 1.62354C207.51 1.06852 208.36 0.576172 209.273 0.146484L209.703 0.76416ZM192.999 21.3086C193.823 19.5898 194.637 17.9427 195.443 16.3672C196.249 14.7738 197.063 13.2699 197.887 11.8555C198.728 10.4232 199.597 9.08936 200.492 7.854C201.387 6.60075 202.354 5.44596 203.392 4.38965C202.21 3.92415 200.921 3.58398 199.525 3.36914C198.146 3.1543 196.669 3.04688 195.094 3.04688C192.927 3.04688 190.806 3.30648 188.729 3.82568C186.652 4.34489 184.647 5.06104 182.713 5.97412C180.798 6.8693 178.963 7.93457 177.208 9.16992C175.471 10.4053 173.851 11.748 172.347 13.1982C170.861 14.6484 169.509 16.1702 168.292 17.7637C167.092 19.3392 166.063 20.9326 165.204 22.5439C164.362 24.1553 163.709 25.7487 163.243 27.3242C162.796 28.8818 162.572 30.3678 162.572 31.7822C162.572 33.1608 162.822 34.4499 163.324 35.6494C163.825 36.8311 164.514 37.8605 165.392 38.7378C166.287 39.6151 167.343 40.3044 168.561 40.8057C169.796 41.307 171.148 41.5576 172.616 41.5576C174.889 41.5576 176.931 41.11 178.739 40.2148C180.547 39.3197 182.221 38.0485 183.761 36.4014C185.3 34.7363 186.76 32.7401 188.138 30.4126C189.517 28.0851 190.922 25.4891 192.354 22.6245C190.493 21.8905 188.765 20.9505 187.171 19.8047L187.601 19.0527C188.46 19.4824 189.329 19.8942 190.206 20.2881C191.101 20.6641 192.032 21.0042 192.999 21.3086ZM209.112 12.2046C209.112 10.6112 208.763 9.25049 208.065 8.12256C207.385 6.99463 206.427 6.05469 205.191 5.30273C203.562 7.41536 202.005 9.87712 200.519 12.688C199.05 15.481 197.529 18.5962 195.953 22.0337C196.472 22.1232 196.992 22.1948 197.511 22.2485C198.03 22.2843 198.558 22.3022 199.095 22.3022C200.456 22.3022 201.736 22.0605 202.936 21.5771C204.153 21.0938 205.218 20.4134 206.131 19.5361C207.044 18.641 207.77 17.5757 208.307 16.3403C208.844 15.105 209.112 13.7264 209.112 12.2046Z" fill="#595959"/>
</svg>
