<svg width="8" height="8" viewBox="0 0 8 8" fill="none" xmlns="http://www.w3.org/2000/svg">
<path d="M5.68998 4.088C6.47555 4.088 7.00493 4.88218 7.00493 6.05891C7.00493 7.11782 6.39649 8 5.5724 8C4.66974 8 4.00276 6.94109 4.00276 5.32364C4.00276 1.64727 5.84709 0.176727 7.00493 0V1.61745C6.21986 1.82327 5.33723 2.97018 5.2977 4.23564C5.33723 4.20655 5.49384 4.088 5.68998 4.088Z" fill="#85B0D9"/>
<path d="M1.68766 4.088C2.4722 4.088 3.00206 4.88218 3.00206 6.05891C3.00206 7.11782 2.39364 8 1.56958 8C0.666958 8 0 6.94109 0 5.32364C0 1.64727 1.84427 0.176727 3.00206 0V1.61745C2.21702 1.82327 1.33442 2.97018 1.29489 4.23564C1.33442 4.20655 1.49102 4.088 1.68766 4.088Z" fill="#85B0D9"/>
</svg>
