<svg width="8" height="8" viewBox="0 0 8 8" fill="none" xmlns="http://www.w3.org/2000/svg">
<path d="M1.31501 4.088C0.529428 4.088 3.57628e-05 4.88218 3.57628e-05 6.05891C3.57628e-05 7.11782 0.608487 8 1.4326 8C2.33526 8 3.00226 6.94109 3.00226 5.32364C3.00226 1.64727 1.15789 0.176727 3.57628e-05 0V1.61745C0.785117 1.82327 1.66777 2.97018 1.7073 4.23564C1.66777 4.20655 1.51115 4.088 1.31501 4.088Z" fill="#85B0D9"/>
<path d="M5.31725 4.088C4.5327 4.088 4.00283 4.88218 4.00283 6.05891C4.00283 7.11782 4.61126 8 5.43534 8C6.33797 8 7.00494 6.94109 7.00494 5.32364C7.00494 1.64727 5.16064 0.176727 4.00283 0V1.61745C4.78788 1.82327 5.6705 2.97018 5.71003 4.23564C5.6705 4.20655 5.51389 4.088 5.31725 4.088Z" fill="#85B0D9"/>
</svg>
