<svg width="27" height="23" viewBox="0 0 27 23" fill="none" xmlns="http://www.w3.org/2000/svg">
<path d="M27 11.4009C27 11.323 27 11.2345 26.997 11.1319C26.994 10.8452 26.9879 10.5231 26.9819 10.1797C26.9578 9.19221 26.9156 8.20822 26.8493 7.28085C26.7589 6.00308 26.6263 4.93767 26.4455 4.13773C26.2547 3.30293 25.8807 2.54157 25.3609 1.92975C24.8411 1.31793 24.1937 0.877087 23.4834 0.651277C22.6306 0.382271 20.9612 0.215912 18.6107 0.113265C17.4927 0.0637118 16.2964 0.0318557 15.1001 0.014158C14.6812 0.00707888 14.2925 0.00353955 13.943 0H13.057C12.7075 0.00353955 12.3187 0.00707888 11.8999 0.014158C10.7036 0.0318557 9.50725 0.0637118 8.38929 0.113265C6.03884 0.219452 4.36641 0.385811 3.51663 0.651277C2.80607 0.876532 2.1584 1.31719 1.63851 1.9291C1.11863 2.541 0.74479 3.30266 0.554464 4.13773C0.370647 4.93767 0.241071 6.00308 0.15067 7.28085C0.084375 8.20822 0.0421875 9.19221 0.0180803 10.1797C0.00904013 10.5231 0.00602674 10.8452 0.00301335 11.1319C0.00301335 11.2345 0 11.323 0 11.4009V11.5991C0 11.677 -4.61005e-08 11.7655 0.00301335 11.8681C0.00602674 12.1548 0.0120535 12.4769 0.0180803 12.8202C0.0421875 13.8078 0.084375 14.7918 0.15067 15.7191C0.241071 16.9969 0.373661 18.0623 0.554464 18.8623C0.940179 20.5577 2.07321 21.8957 3.51663 22.3487C4.36641 22.6177 6.03884 22.7841 8.38929 22.8867C9.50725 22.9363 10.7036 22.9681 11.8999 22.9858C12.3187 22.9929 12.7075 22.9965 13.057 23H13.943C14.2925 22.9965 14.6812 22.9929 15.1001 22.9858C16.2964 22.9681 17.4927 22.9363 18.6107 22.8867C20.9612 22.7805 22.6336 22.6142 23.4834 22.3487C24.9268 21.8957 26.0598 20.5612 26.4455 18.8623C26.6294 18.0623 26.7589 16.9969 26.8493 15.7191C26.9156 14.7918 26.9578 13.8078 26.9819 12.8202C26.991 12.4769 26.994 12.1548 26.997 11.8681C26.997 11.7655 27 11.677 27 11.5991V11.4009ZM24.8304 11.5849C24.8304 11.6593 24.8304 11.7407 24.8273 11.8363C24.8243 12.1123 24.8183 12.4167 24.8123 12.7459C24.7912 13.6874 24.749 14.629 24.6857 15.5032C24.6044 16.643 24.4898 17.5774 24.3482 18.2039C24.1614 19.0215 23.6129 19.6693 22.9199 19.8852C22.2871 20.0834 20.693 20.2427 18.5263 20.3383C17.4295 20.3878 16.2482 20.4197 15.07 20.4374C14.6571 20.4444 14.2744 20.448 13.9309 20.448H13.0691L11.93 20.4374C10.7518 20.4197 9.57355 20.3878 8.47366 20.3383C6.30703 20.2391 4.70993 20.0834 4.08013 19.8852C3.38705 19.6657 2.83862 19.0215 2.65179 18.2039C2.51016 17.5774 2.39565 16.643 2.31429 15.5032C2.251 14.629 2.21183 13.6874 2.18772 12.7459C2.17868 12.4167 2.17567 12.1088 2.17266 11.8363C2.17266 11.7407 2.16964 11.6557 2.16964 11.5849V11.415C2.16964 11.3407 2.16964 11.2593 2.17266 11.1637C2.17567 10.8877 2.1817 10.5833 2.18772 10.2541C2.20882 9.31256 2.251 8.37104 2.31429 7.49677C2.39565 6.35703 2.51016 5.42259 2.65179 4.79609C2.83862 3.97845 3.38705 3.33072 4.08013 3.1148C4.71295 2.91659 6.30703 2.75731 8.47366 2.66174C9.57054 2.61219 10.7518 2.58033 11.93 2.56263C12.3429 2.55556 12.7256 2.55202 13.0691 2.55202H13.9309L15.07 2.56263C16.2482 2.58033 17.4264 2.61219 18.5263 2.66174C20.693 2.76085 22.2901 2.91659 22.9199 3.1148C23.6129 3.33426 24.1614 3.97845 24.3482 4.79609C24.4898 5.42259 24.6044 6.35703 24.6857 7.49677C24.749 8.37104 24.7882 9.31256 24.8123 10.2541C24.8213 10.5833 24.8243 10.8912 24.8273 11.1637C24.8273 11.2593 24.8304 11.3443 24.8304 11.415V11.5849ZM10.8181 16.243L17.8092 11.4646L10.8181 6.757V16.243Z" fill="#595959"/>
</svg>
